<?xml version="1.0" standalone="no"?>
<!DOCTYPE svg PUBLIC "-//W3C//DTD SVG 1.1//EN" "http://www.w3.org/Graphics/SVG/1.1/DTD/svg11.dtd" >
<svg xmlns="http://www.w3.org/2000/svg" xmlns:xlink="http://www.w3.org/1999/xlink" version="1.1">
<metadata></metadata>
<defs>
<font id="minisystemregular" horiz-adv-x="1386" >
<font-face units-per-em="2048" ascent="1749" descent="-299" />
<missing-glyph horiz-adv-x="500" />
<glyph horiz-adv-x="0" />
<glyph horiz-adv-x="682" />
<glyph unicode=" " />
<glyph unicode="!" d="M705 1434h100l-10 -101h-97zM694 1286h97l-7 -100h-100zM682 1137h96l-8 -99h-96zM668 989h98l-10 -98h-97zM653 840h99l-7 -99h-100zM641 692h98l-8 -98h-98zM629 543h96l-6 -99h-98zM590 100h96l-6 -100h-100z" />
<glyph unicode="&#x22;" d="M299 1473h96l-6 -97h-100zM287 1325h96l-8 -98h-99zM272 1178h101l-11 -101h-96zM262 1028h96l-10 -98h-98zM950 1473h97l-7 -97h-100zM938 1325h98l-10 -98h-96zM926 1178h98l-8 -101h-98zM913 1028h97l-9 -98h-100z" />
<glyph unicode="$" d="M1008 1581h98l-8 -98h-99zM860 1581h96l-6 -98h-100zM713 1581h96l-6 -98h-101zM561 1581h101l-9 -98h-98zM700 1432h97l-9 -99h-96zM414 1581h102l-10 -98h-98zM686 1284h100l-10 -98h-96zM676 1135h96l-6 -99h-100zM944 840h96l-6 -101h-100zM1077 692h103l-11 -98h-98 zM254 1432h98l-8 -99h-98zM662 987h98l-10 -100h-99zM795 840h98l-8 -101h-99zM1065 543h100l-6 -99h-102zM244 1284h96l-10 -98h-97zM647 840h98l-8 -101h-96zM1055 395h98l-10 -100h-101zM229 1135h99l-9 -99h-98zM498 840h100l-8 -101h-101zM635 692h98l-10 -98h-96z M1038 246h103l-11 -99h-100zM217 987h98l-10 -100h-100zM348 840h103l-9 -101h-100zM623 543h98l-8 -99h-99zM610 395h97l-9 -100h-100zM879 96h96l-6 -96h-101zM596 246h98l-10 -99h-96zM731 96h96l-6 -96h-98zM582 96h100l-8 -96h-99zM432 96h103l-11 -96h-98zM287 96h100 l-10 -96h-101z" />
<glyph unicode="%" d="M219 1430h98l-12 -101h-96zM203 1280h98l-8 -98h-96zM193 1133h96l-8 -97h-99zM1073 541h96l-10 -99h-98zM1057 393h96l-6 -100h-96zM1044 246h99l-10 -99h-97zM997 1432h99l-9 -99h-98zM934 1284h102l-10 -98h-98zM872 1135h101l-8 -99h-101zM811 987h100l-12 -100h-96z M487 692h101l-8 -100h-101zM428 543h96l-6 -99h-100zM365 395h98l-10 -100h-99zM301 246h98l-6 -99h-102z" />
<glyph unicode="&#x26;" d="M1040 1581h101l-11 -98h-96zM893 1581h98l-8 -98h-98zM1028 1432h98l-8 -99h-98zM745 1581h99l-8 -98h-99zM967 1284h98l-8 -98h-101zM596 1581h100l-10 -98h-98zM903 1135h101l-11 -99h-98zM449 1581h100l-10 -98h-101zM844 987h96l-8 -100h-101zM1112 692h100l-10 -98 h-100zM289 1432h98l-10 -99h-96zM1098 543h102l-10 -99h-98zM274 1284h99l-8 -98h-97zM682 840h96l-8 -101h-96zM815 692h98l-6 -98h-100zM1087 395h99l-8 -100h-101zM264 1135h96l-8 -99h-98zM850 543h102l-8 -99h-100zM532 840h99l-8 -101h-101zM1073 246h98l-8 -99h-100z M891 395h98l-10 -100h-100zM250 987h98l-10 -100h-98zM383 840h100l-6 -101h-102zM926 246h96l-6 -99h-101zM911 96h99l-9 -96h-98zM225 692h97l-11 -98h-96zM766 96h96l-8 -96h-98zM211 543h98l-8 -99h-98zM616 96h99l-10 -96h-97zM199 395h96l-8 -100h-101zM467 96h100 l-8 -96h-100zM184 246h99l-11 -99h-96zM319 96h99l-6 -96h-103z" />
<glyph unicode="'" d="M668 1473h98l-8 -97h-96zM657 1325h97l-9 -98h-98zM643 1178h98l-8 -101h-98zM631 1028h98l-10 -98h-96z" />
<glyph unicode="(" d="M754 1432h96l-6 -99h-99zM692 1284h99l-7 -98h-102zM629 1135h100l-8 -99h-100zM569 987h97l-9 -100h-100zM541 692h100l-10 -100h-96zM578 543h100l-10 -99h-99zM614 395h101l-13 -100h-98zM649 246h99l-9 -99h-98z" />
<glyph unicode=")" d="M643 1432h102l-10 -99h-100zM682 1284h96l-8 -98h-96zM719 1135h96l-8 -99h-96zM754 987h100l-10 -100h-99zM725 692h102l-8 -100h-100zM666 543h100l-10 -99h-97zM604 395h98l-10 -100h-98zM539 246h102l-10 -99h-99z" />
<glyph unicode="*" d="M997 1432h99l-9 -99h-98zM934 1284h102l-10 -98h-98zM702 1432h99l-10 -99h-97zM872 1135h101l-8 -99h-101zM688 1284h98l-8 -98h-96zM406 1432h98l-6 -99h-103zM678 1135h96l-8 -99h-98zM811 987h100l-12 -100h-96zM946 840h96l-6 -101h-100zM442 1284h97l-7 -98h-98z M664 987h100l-12 -100h-99zM797 840h98l-8 -101h-99zM479 1135h99l-9 -99h-98zM516 987h98l-10 -100h-100zM649 840h99l-9 -101h-96zM786 692h97l-9 -100h-98zM821 543h99l-9 -99h-100zM500 840h102l-10 -101h-100zM639 692h96l-10 -100h-96zM858 395h98l-8 -100h-100z M352 840h101l-9 -101h-100zM487 692h101l-8 -100h-101zM625 543h98l-8 -99h-99zM893 246h98l-8 -99h-98zM612 395h99l-11 -100h-98zM428 543h96l-6 -99h-100zM598 246h98l-10 -99h-96zM365 395h98l-10 -100h-99zM301 246h98l-6 -99h-102z" />
<glyph unicode="+" d="M702 1432h99l-10 -99h-97zM688 1284h98l-8 -98h-96zM678 1135h96l-8 -99h-98zM946 840h96l-6 -101h-100zM664 987h100l-12 -100h-99zM797 840h98l-8 -101h-99zM649 840h99l-9 -101h-96zM500 840h102l-10 -101h-100zM639 692h96l-10 -100h-96zM352 840h101l-9 -101h-100z M625 543h98l-8 -99h-99zM612 395h99l-11 -100h-98zM598 246h98l-10 -99h-96z" />
<glyph unicode="," d="M664 328h96l-10 -99h-99zM647 180h98l-8 -98h-96zM635 33h98l-10 -99h-96z" />
<glyph unicode="-" d="M946 840h96l-6 -101h-100zM797 840h98l-8 -101h-99zM649 840h99l-9 -101h-96zM500 840h102l-10 -101h-100zM352 840h101l-9 -101h-100z" />
<glyph unicode="." d="M647 16h98l-8 -100h-96z" />
<glyph unicode="/" d="M997 1432h99l-9 -99h-98zM934 1284h102l-10 -98h-98zM872 1135h101l-8 -99h-101zM811 987h100l-12 -100h-96zM487 692h101l-8 -100h-101zM428 543h96l-6 -99h-100zM365 395h98l-10 -100h-99zM301 246h98l-6 -99h-102z" />
<glyph unicode="0" d="M1008 1581h98l-8 -98h-99zM1143 1432h100l-8 -99h-100zM860 1581h96l-6 -98h-100zM1130 1284h101l-8 -98h-101zM713 1581h96l-6 -98h-101zM1118 1135h101l-11 -99h-98zM561 1581h101l-9 -98h-98zM1106 987h98l-8 -100h-100zM414 1581h102l-10 -98h-98zM1077 692h103 l-11 -98h-98zM254 1432h98l-8 -99h-98zM1065 543h100l-6 -99h-102zM244 1284h96l-10 -98h-97zM1055 395h98l-10 -100h-101zM229 1135h99l-9 -99h-98zM1038 246h103l-11 -99h-100zM217 987h98l-10 -100h-100zM879 96h96l-6 -96h-101zM190 692h97l-6 -98h-99zM731 96h96 l-6 -96h-98zM178 543h96l-8 -99h-98zM582 96h100l-8 -96h-99zM164 395h100l-12 -100h-96zM432 96h103l-11 -96h-98zM150 246h98l-8 -99h-99zM287 96h100l-10 -96h-101z" />
<glyph unicode="1" d="M700 1432h101l-10 -99h-99zM686 1284h100l-8 -98h-98zM676 1135h98l-8 -99h-100zM664 987h100l-12 -100h-101zM635 692h100l-10 -100h-98zM623 543h100l-8 -99h-101zM610 395h101l-11 -100h-98zM596 246h100l-10 -99h-98z" />
<glyph unicode="2" d="M1008 1581h98l-8 -98h-99zM1143 1432h100l-8 -99h-100zM860 1581h96l-6 -98h-100zM1130 1284h101l-8 -98h-101zM713 1581h96l-6 -98h-101zM1118 1135h101l-11 -99h-98zM561 1581h101l-9 -98h-98zM1106 987h98l-8 -100h-100zM414 1581h102l-10 -98h-98zM944 840h96 l-6 -101h-100zM795 840h98l-8 -101h-99zM647 840h98l-8 -101h-96zM498 840h100l-8 -101h-101zM348 840h103l-9 -101h-100zM879 96h96l-6 -96h-101zM190 692h97l-6 -98h-99zM731 96h96l-6 -96h-98zM178 543h96l-8 -99h-98zM582 96h100l-8 -96h-99zM164 395h100l-12 -100h-96z M432 96h103l-11 -96h-98zM150 246h98l-8 -99h-99zM287 96h100l-10 -96h-101z" />
<glyph unicode="3" d="M940 1581h98l-8 -98h-98zM1077 1432h101l-11 -99h-98zM793 1581h98l-8 -98h-97zM1063 1284h100l-8 -98h-98zM645 1581h100l-10 -98h-96zM1053 1135h98l-8 -99h-101zM498 1581h98l-8 -98h-101zM1038 987h103l-13 -100h-100zM348 1581h101l-11 -98h-98zM877 840h96l-6 -101 h-99zM1012 692h100l-10 -98h-98zM729 840h98l-8 -101h-98zM999 543h99l-6 -99h-101zM580 840h100l-10 -101h-97zM987 395h100l-10 -100h-102zM432 840h100l-10 -101h-98zM973 246h100l-10 -99h-98zM285 840h98l-8 -101h-101zM811 96h100l-10 -96h-96zM664 96h100l-10 -96 h-97zM518 96h96l-8 -96h-98zM367 96h100l-8 -96h-101zM219 96h100l-10 -96h-98z" />
<glyph unicode="4" d="M1112 1432h100l-10 -99h-100zM1098 1284h102l-10 -98h-98zM1087 1135h99l-6 -99h-103zM1075 987h99l-11 -100h-100zM911 840h99l-9 -101h-98zM1047 692h100l-6 -100h-103zM225 1432h97l-11 -99h-96zM766 840h96l-8 -101h-98zM1036 543h99l-9 -99h-100zM211 1284h98 l-8 -98h-98zM616 840h99l-10 -101h-97zM1022 395h100l-10 -100h-100zM199 1135h96l-6 -99h-99zM467 840h100l-8 -101h-100zM1008 246h100l-10 -99h-99zM184 987h101l-13 -100h-96zM319 840h99l-6 -101h-103z" />
<glyph unicode="5" d="M1008 1581h98l-8 -98h-99zM860 1581h96l-6 -98h-100zM713 1581h96l-6 -98h-101zM561 1581h101l-9 -98h-98zM414 1581h102l-10 -98h-98zM944 840h96l-6 -101h-100zM1077 692h103l-11 -98h-98zM254 1432h98l-8 -99h-98zM795 840h98l-8 -101h-99zM1065 543h100l-6 -99h-102z M244 1284h96l-10 -98h-97zM647 840h98l-8 -101h-96zM1055 395h98l-10 -100h-101zM229 1135h99l-9 -99h-98zM498 840h100l-8 -101h-101zM1038 246h103l-11 -99h-100zM217 987h98l-10 -100h-100zM348 840h103l-9 -101h-100zM879 96h96l-6 -96h-101zM731 96h96l-6 -96h-98z M582 96h100l-8 -96h-99zM432 96h103l-11 -96h-98zM287 96h100l-10 -96h-101z" />
<glyph unicode="6" d="M1040 1581h101l-11 -98h-96zM893 1581h98l-8 -98h-98zM745 1581h99l-8 -98h-99zM596 1581h100l-10 -98h-98zM449 1581h100l-10 -98h-101zM975 840h100l-10 -101h-96zM1112 692h100l-10 -98h-100zM289 1432h98l-10 -99h-96zM827 840h101l-10 -101h-97zM1098 543h102 l-10 -99h-98zM274 1284h99l-8 -98h-97zM682 840h96l-8 -101h-96zM1087 395h99l-8 -100h-101zM264 1135h96l-8 -99h-98zM532 840h99l-8 -101h-101zM1073 246h98l-8 -99h-100zM250 987h98l-10 -100h-98zM383 840h100l-6 -101h-102zM911 96h99l-9 -96h-98zM225 692h97l-11 -98 h-96zM766 96h96l-8 -96h-98zM211 543h98l-8 -99h-98zM616 96h99l-10 -96h-97zM199 395h96l-8 -100h-101zM467 96h100l-8 -96h-100zM184 246h99l-11 -99h-96zM319 96h99l-6 -96h-103z" />
<glyph unicode="7" d="M877 1591h96l-6 -102h-99zM1012 1440h100l-10 -99h-98zM729 1591h98l-8 -102h-98zM999 1292h99l-6 -96h-101zM580 1591h100l-10 -102h-97zM987 1145h100l-10 -101h-98zM432 1591h100l-10 -102h-98zM973 997h102l-12 -100h-98zM285 1591h98l-8 -102h-101zM948 698h99 l-9 -96h-100zM934 551h102l-10 -100h-98zM922 406h100l-10 -103h-101zM909 254h99l-9 -98h-100z" />
<glyph unicode="8" d="M1008 1581h98l-8 -98h-99zM1143 1432h100l-8 -99h-100zM860 1581h96l-6 -98h-100zM1130 1284h101l-8 -98h-101zM713 1581h96l-6 -98h-101zM1118 1135h101l-11 -99h-98zM561 1581h101l-9 -98h-98zM1106 987h98l-8 -100h-100zM414 1581h102l-10 -98h-98zM944 840h96 l-6 -101h-100zM1077 692h103l-11 -98h-98zM254 1432h98l-8 -99h-98zM795 840h98l-8 -101h-99zM1065 543h100l-6 -99h-102zM244 1284h96l-10 -98h-97zM647 840h98l-8 -101h-96zM1055 395h98l-10 -100h-101zM229 1135h99l-9 -99h-98zM498 840h100l-8 -101h-101zM1038 246h103 l-11 -99h-100zM217 987h98l-10 -100h-100zM348 840h103l-9 -101h-100zM879 96h96l-6 -96h-101zM190 692h97l-6 -98h-99zM731 96h96l-6 -96h-98zM178 543h96l-8 -99h-98zM582 96h100l-8 -96h-99zM164 395h100l-12 -100h-96zM432 96h103l-11 -96h-98zM150 246h98l-8 -99h-99z M287 96h100l-10 -96h-101z" />
<glyph unicode="9" d="M975 1581h100l-10 -98h-96zM1112 1432h100l-10 -99h-100zM827 1581h101l-10 -98h-97zM1098 1284h102l-10 -98h-98zM682 1581h96l-8 -98h-96zM1087 1135h99l-6 -99h-103zM532 1581h99l-8 -98h-101zM1075 987h99l-11 -100h-100zM383 1581h100l-6 -98h-102zM911 840h99 l-9 -101h-98zM1047 692h100l-6 -98h-103zM225 1432h97l-11 -99h-96zM766 840h96l-8 -101h-98zM1036 543h99l-9 -99h-100zM211 1284h98l-8 -98h-98zM616 840h99l-10 -101h-97zM1022 395h100l-10 -100h-100zM199 1135h96l-6 -99h-99zM467 840h100l-8 -101h-100zM1008 246h100 l-10 -99h-99zM184 987h101l-13 -100h-96zM319 840h99l-6 -101h-103zM848 96h98l-10 -96h-96zM700 96h97l-9 -96h-96zM553 96h96l-6 -96h-100zM401 96h101l-6 -96h-103zM254 96h100l-8 -96h-98z" />
<glyph unicode=":" d="M682 1128h96l-8 -100h-96zM616 387h99l-13 -100h-96z" />
<glyph unicode=";" d="M686 1118h100l-10 -98h-96zM623 379h98l-10 -98h-99zM608 229h97l-7 -98h-100z" />
<glyph unicode="&#x3c;" d="M754 1432h96l-6 -99h-99zM692 1284h99l-7 -98h-102zM629 1135h100l-8 -99h-100zM569 987h97l-9 -100h-100zM541 692h100l-10 -100h-96zM578 543h100l-10 -99h-99zM614 395h101l-13 -100h-98zM649 246h99l-9 -99h-98z" />
<glyph unicode="=" d="M975 1147h100l-10 -96h-96zM827 1147h101l-10 -96h-97zM682 1147h96l-8 -96h-96zM532 1147h99l-8 -96h-101zM383 1147h100l-10 -96h-98zM911 406h99l-9 -99h-98zM766 406h96l-8 -99h-98zM616 406h99l-10 -99h-97zM467 406h100l-10 -99h-98zM319 406h99l-6 -99h-103z" />
<glyph unicode="&#x3e;" d="M643 1432h102l-10 -99h-100zM682 1284h96l-8 -98h-96zM719 1135h96l-8 -99h-96zM754 987h100l-10 -100h-99zM725 692h102l-8 -100h-100zM666 543h100l-10 -99h-97zM604 395h98l-10 -100h-98zM539 246h102l-10 -99h-99z" />
<glyph unicode="?" d="M1018 1581h98l-8 -98h-98zM1153 1432h100l-10 -99h-98zM868 1581h101l-11 -98h-96zM1141 1284h100l-8 -98h-100zM723 1581h98l-10 -98h-96zM1128 1135h99l-6 -99h-103zM573 1581h101l-10 -98h-101zM1116 987h101l-13 -100h-98zM426 1581h98l-8 -98h-100zM952 840h101 l-11 -101h-96zM807 840h96l-8 -101h-98zM659 840h97l-8 -101h-99zM508 840h100l-10 -101h-98zM360 840h101l-8 -101h-101zM201 692h98l-10 -98h-96zM186 543h101l-11 -99h-96zM176 395h96l-8 -100h-100zM141 96h99l-9 -96h-100z" />
<glyph unicode="A" d="M1008 1581h98l-8 -102h-99zM1143 1432h100l-8 -101h-100zM860 1581h96l-6 -102h-100zM1130 1284h101l-8 -98h-101zM713 1581h96l-6 -102h-101zM1118 1135h101l-11 -99h-98zM561 1581h101l-9 -102h-98zM1106 987h98l-8 -100h-100zM414 1581h102l-10 -102h-98zM944 838h96 l-6 -99h-100zM1077 688h103l-11 -96h-98zM254 1432h98l-8 -101h-98zM795 838h98l-8 -99h-99zM1065 541h100l-6 -99h-102zM244 1284h96l-10 -98h-97zM647 838h98l-8 -99h-96zM1055 395h98l-10 -102h-101zM229 1135h99l-9 -99h-98zM498 838h100l-8 -99h-101zM1038 246h103 l-11 -101h-100zM217 987h98l-10 -100h-100zM348 838h103l-9 -99h-100zM190 688h97l-6 -96h-99zM178 541h96l-8 -99h-98zM164 395h100l-12 -102h-96zM150 246h98l-8 -101h-99z" />
<glyph unicode="B" d="M940 1581h98l-8 -98h-98zM1077 1432h101l-11 -99h-98zM793 1581h98l-8 -98h-97zM1063 1284h100l-8 -98h-98zM645 1581h100l-10 -98h-96zM1053 1135h98l-8 -99h-101zM498 1581h98l-8 -98h-101zM633 1432h98l-8 -99h-98zM1038 987h103l-13 -100h-100zM348 1581h101l-11 -98 h-98zM623 1284h96l-8 -98h-99zM608 1135h97l-7 -99h-96zM877 840h96l-6 -101h-99zM1012 692h100l-10 -98h-98zM596 987h98l-10 -100h-98zM729 840h98l-8 -101h-98zM999 543h99l-6 -99h-101zM580 840h100l-10 -101h-97zM987 395h100l-10 -100h-102zM569 692h97l-7 -98h-100z M973 246h100l-10 -99h-98zM557 543h96l-8 -99h-96zM543 395h100l-12 -100h-96zM811 96h100l-10 -96h-96zM530 246h97l-6 -99h-101zM664 96h100l-10 -96h-97zM518 96h96l-8 -96h-98zM367 96h100l-8 -96h-101zM219 96h100l-10 -96h-98z" />
<glyph unicode="C" d="M1077 1581h97l-9 -98h-96zM930 1581h96l-8 -98h-98zM782 1581h97l-11 -98h-96zM631 1581h100l-8 -98h-100zM483 1581h99l-7 -98h-102zM324 1432h96l-8 -99h-97zM309 1284h101l-11 -98h-96zM299 1135h96l-6 -99h-100zM287 987h96l-10 -100h-99zM948 96h96l-8 -96h-98z M258 692h98l-8 -98h-98zM801 96h96l-6 -96h-100zM246 543h98l-8 -99h-98zM651 96h99l-9 -96h-98zM233 395h97l-8 -100h-97zM502 96h100l-8 -96h-98zM219 246h98l-10 -99h-96zM354 96h99l-7 -96h-100z" />
<glyph unicode="D" d="M940 1581h98l-8 -98h-98zM1077 1432h101l-11 -99h-98zM793 1581h98l-8 -98h-97zM1063 1284h100l-8 -98h-98zM645 1581h100l-10 -98h-96zM1053 1135h98l-8 -99h-101zM498 1581h98l-8 -98h-101zM633 1432h98l-8 -99h-98zM1038 987h103l-13 -100h-100zM348 1581h101l-11 -98 h-98zM623 1284h96l-8 -98h-99zM608 1135h97l-7 -99h-96zM1012 692h100l-10 -98h-98zM596 987h98l-10 -100h-98zM999 543h99l-6 -99h-101zM987 395h100l-10 -100h-102zM569 692h97l-7 -98h-100zM973 246h100l-10 -99h-98zM557 543h96l-8 -99h-96zM543 395h100l-12 -100h-96z M811 96h100l-10 -96h-96zM530 246h97l-6 -99h-101zM664 96h100l-10 -96h-97zM518 96h96l-8 -96h-98zM367 96h100l-8 -96h-101zM219 96h100l-10 -96h-98z" />
<glyph unicode="E" d="M1077 1581h97l-9 -98h-96zM930 1581h96l-8 -98h-98zM782 1581h97l-11 -98h-96zM631 1581h100l-8 -98h-100zM483 1581h99l-7 -98h-102zM1012 840h98l-10 -101h-96zM324 1432h96l-8 -99h-97zM864 840h99l-11 -101h-96zM309 1284h101l-11 -98h-96zM717 840h96l-6 -101h-100z M299 1135h96l-6 -99h-100zM567 840h99l-7 -101h-102zM287 987h96l-10 -100h-99zM418 840h100l-8 -101h-98zM948 96h96l-8 -96h-98zM258 692h98l-8 -98h-98zM801 96h96l-6 -96h-100zM246 543h98l-8 -99h-98zM651 96h99l-9 -96h-98zM233 395h97l-8 -100h-97zM502 96h100 l-8 -96h-98zM219 246h98l-10 -99h-96zM354 96h99l-7 -96h-100z" />
<glyph unicode="F" d="M1077 1581h97l-9 -102h-96zM930 1581h96l-8 -102h-98zM782 1581h97l-11 -102h-96zM631 1581h100l-8 -102h-100zM483 1581h99l-7 -102h-102zM1012 838h98l-10 -99h-96zM324 1432h96l-8 -101h-97zM864 838h99l-11 -99h-96zM309 1284h101l-11 -98h-96zM717 838h96l-6 -99 h-100zM299 1135h96l-6 -99h-100zM567 838h99l-7 -99h-102zM287 987h96l-10 -100h-99zM418 838h100l-8 -99h-98zM258 688h98l-8 -96h-98zM246 541h98l-8 -99h-98zM233 395h97l-8 -102h-97zM219 246h98l-10 -101h-96z" />
<glyph unicode="G" d="M1077 1581h97l-9 -98h-96zM930 1581h96l-8 -98h-98zM782 1581h97l-11 -98h-96zM631 1581h100l-8 -98h-100zM483 1581h99l-7 -98h-102zM324 1432h96l-8 -99h-97zM309 1284h101l-11 -98h-96zM850 692h100l-10 -98h-96zM299 1135h96l-6 -99h-100zM887 543h100l-8 -99h-100z M926 395h98l-8 -100h-103zM287 987h96l-10 -100h-99zM958 246h99l-6 -99h-99zM948 96h96l-8 -96h-98zM258 692h98l-8 -98h-98zM801 96h96l-6 -96h-100zM246 543h98l-8 -99h-98zM651 96h99l-9 -96h-98zM233 395h97l-8 -100h-97zM502 96h100l-8 -96h-98zM219 246h98l-10 -99 h-96zM354 96h99l-7 -96h-100z" />
<glyph unicode="H" d="M1143 1430h100l-8 -99h-100zM1130 1280h101l-8 -96h-101zM1118 1133h101l-11 -99h-98zM1106 985h98l-8 -100h-100zM944 838h96l-6 -101h-100zM1077 688h103l-11 -98h-98zM254 1430h98l-8 -99h-98zM795 838h98l-8 -101h-99zM1065 541h100l-6 -99h-102zM244 1280h96 l-10 -96h-97zM647 838h98l-8 -101h-96zM1055 393h98l-10 -100h-101zM229 1133h99l-9 -99h-98zM498 838h100l-8 -101h-101zM1038 244h103l-11 -99h-100zM217 985h98l-10 -100h-100zM348 838h103l-9 -101h-100zM190 688h97l-6 -98h-99zM178 541h96l-8 -99h-98zM164 393h100 l-12 -100h-96zM150 244h98l-8 -99h-99z" />
<glyph unicode="I" d="M1010 1581h98l-10 -98h-97zM862 1581h96l-6 -98h-98zM715 1581h96l-6 -98h-100zM563 1581h101l-7 -98h-100zM702 1432h99l-10 -99h-97zM416 1581h102l-10 -98h-98zM688 1284h98l-8 -98h-96zM678 1135h96l-8 -99h-98zM664 987h100l-12 -100h-99zM649 840h99l-9 -101h-96z M639 692h96l-10 -98h-96zM625 543h98l-8 -99h-99zM612 395h99l-11 -100h-98zM881 96h98l-8 -96h-99zM598 246h98l-10 -99h-96zM733 96h96l-6 -96h-100zM586 96h96l-6 -96h-98zM434 96h103l-11 -96h-98zM289 96h100l-10 -96h-98z" />
<glyph unicode="J" d="M1143 1434h100l-8 -101h-100zM1130 1286h101l-8 -100h-101zM1118 1137h101l-11 -99h-98zM1106 989h98l-8 -98h-100zM1077 692h103l-11 -98h-98zM1065 543h100l-6 -99h-102zM1055 395h98l-10 -100h-101zM1038 248h103l-11 -101h-100zM879 100h96l-6 -100h-101zM190 692h97 l-6 -98h-99zM731 100h96l-6 -100h-98zM178 543h96l-8 -99h-98zM582 100h100l-8 -100h-99zM164 395h100l-12 -100h-96zM432 100h103l-11 -100h-98zM150 248h98l-8 -101h-99zM287 100h100l-10 -100h-101z" />
<glyph unicode="K" d="M1028 1430h98l-8 -99h-98zM967 1280h98l-8 -96h-101zM903 1133h101l-11 -99h-98zM844 985h96l-8 -100h-101zM975 838h100l-10 -101h-96zM1112 688h100l-10 -98h-100zM289 1430h98l-10 -99h-96zM827 838h101l-10 -101h-97zM1098 541h102l-10 -99h-98zM274 1280h99l-8 -96 h-97zM682 838h96l-8 -101h-96zM1087 393h99l-8 -100h-101zM264 1133h96l-8 -99h-98zM532 838h99l-8 -101h-101zM1073 244h98l-8 -99h-100zM250 985h98l-10 -100h-98zM383 838h100l-6 -101h-102zM225 688h97l-11 -98h-96zM211 541h98l-8 -99h-98zM199 393h96l-8 -100h-101z M184 244h99l-11 -99h-96z" />
<glyph unicode="L" d="M389 1434h96l-8 -101h-98zM375 1286h98l-8 -100h-98zM362 1137h99l-8 -99h-99zM348 989h101l-13 -98h-96zM1012 100h98l-10 -100h-96zM324 692h96l-8 -98h-97zM864 100h99l-11 -100h-96zM309 543h101l-11 -99h-96zM717 100h96l-6 -100h-100zM299 395h96l-8 -100h-100z M567 100h99l-7 -100h-102zM285 248h96l-8 -101h-99zM418 100h100l-8 -100h-98z" />
<glyph unicode="M" d="M1143 1432h100l-8 -99h-100zM993 1432h101l-11 -99h-96zM1130 1284h101l-8 -98h-101zM1118 1135h101l-11 -99h-98zM932 1284h102l-10 -98h-98zM1106 987h98l-8 -100h-100zM868 1135h103l-8 -99h-101zM401 1432h101l-6 -99h-103zM809 987h100l-12 -100h-96zM1077 692h103 l-11 -100h-98zM438 1284h99l-7 -98h-98zM254 1432h98l-8 -99h-98zM477 1135h98l-8 -99h-98zM1065 543h100l-6 -99h-102zM244 1284h96l-10 -98h-97zM514 987h98l-10 -100h-100zM1055 395h98l-10 -100h-101zM229 1135h99l-9 -99h-98zM1038 246h103l-11 -99h-100zM217 987h98 l-10 -100h-100zM190 692h97l-6 -100h-99zM178 543h96l-8 -99h-98zM164 395h100l-12 -100h-96zM150 246h98l-8 -99h-99z" />
<glyph unicode="N" d="M1143 1432h100l-8 -99h-100zM1130 1284h101l-8 -98h-101zM1118 1135h101l-11 -99h-98zM1106 987h98l-8 -100h-100zM401 1432h101l-6 -99h-103zM1077 692h103l-11 -100h-98zM438 1284h99l-7 -98h-98zM254 1432h98l-8 -99h-98zM477 1135h98l-8 -99h-98zM1065 543h100 l-6 -99h-102zM244 1284h96l-10 -98h-97zM514 987h98l-10 -100h-100zM784 692h97l-9 -100h-98zM1055 395h98l-10 -100h-101zM229 1135h99l-9 -99h-98zM819 543h99l-7 -99h-102zM1038 246h103l-11 -99h-100zM856 395h98l-8 -100h-100zM217 987h98l-10 -100h-100zM891 246h98 l-8 -99h-98zM190 692h97l-6 -100h-99zM178 543h96l-8 -99h-98zM164 395h100l-12 -100h-96zM150 246h98l-8 -99h-99z" />
<glyph unicode="O" d="M1008 1581h98l-8 -98h-99zM1143 1432h100l-8 -99h-100zM860 1581h96l-6 -98h-100zM1130 1284h101l-8 -98h-101zM713 1581h96l-6 -98h-101zM1118 1135h101l-11 -99h-98zM561 1581h101l-9 -98h-98zM1106 987h98l-8 -100h-100zM414 1581h102l-10 -98h-98zM1077 692h103 l-11 -98h-98zM254 1432h98l-8 -99h-98zM1065 543h100l-6 -99h-102zM244 1284h96l-10 -98h-97zM1055 395h98l-10 -100h-101zM229 1135h99l-9 -99h-98zM1038 246h103l-11 -99h-100zM217 987h98l-10 -100h-100zM879 96h96l-6 -96h-101zM190 692h97l-6 -98h-99zM731 96h96 l-6 -96h-98zM178 543h96l-8 -99h-98zM582 96h100l-8 -96h-99zM164 395h100l-12 -100h-96zM432 96h103l-11 -96h-98zM150 246h98l-8 -99h-99zM287 96h100l-10 -96h-101z" />
<glyph unicode="P" d="M1008 1581h98l-8 -102h-99zM1143 1432h100l-8 -101h-100zM860 1581h96l-6 -102h-100zM1130 1284h101l-8 -98h-101zM713 1581h96l-6 -102h-101zM1118 1135h101l-11 -99h-98zM561 1581h101l-9 -102h-98zM1106 987h98l-8 -100h-100zM414 1581h102l-10 -102h-98zM944 838h96 l-6 -99h-100zM254 1432h98l-8 -101h-98zM795 838h98l-8 -99h-99zM244 1284h96l-10 -98h-97zM647 838h98l-8 -99h-96zM229 1135h99l-9 -99h-98zM498 838h100l-8 -99h-101zM217 987h98l-10 -100h-100zM348 838h103l-9 -99h-100zM190 688h97l-6 -96h-99zM178 541h96l-8 -99h-98 zM164 395h100l-12 -102h-96zM150 246h98l-8 -101h-99z" />
<glyph unicode="Q" d="M1008 1581h98l-8 -98h-99zM1143 1432h100l-8 -99h-100zM860 1581h96l-6 -98h-100zM1130 1284h101l-8 -98h-101zM713 1581h96l-6 -98h-101zM1118 1135h101l-11 -99h-98zM561 1581h101l-9 -98h-98zM1106 987h98l-8 -100h-100zM414 1581h102l-10 -98h-98zM1077 692h103 l-11 -98h-98zM254 1432h98l-8 -99h-98zM1065 543h100l-6 -99h-102zM244 1284h96l-10 -98h-97zM784 692h97l-9 -98h-98zM1055 395h98l-10 -100h-101zM229 1135h99l-9 -99h-98zM819 543h99l-7 -99h-102zM1038 246h103l-11 -99h-100zM856 395h98l-8 -100h-100zM217 987h98 l-10 -100h-100zM891 246h98l-8 -99h-98zM879 96h96l-6 -96h-101zM190 692h97l-6 -98h-99zM731 96h96l-6 -96h-98zM178 543h96l-8 -99h-98zM582 96h100l-8 -96h-99zM164 395h100l-12 -100h-96zM432 96h103l-11 -96h-98zM150 246h98l-8 -99h-99zM287 96h100l-10 -96h-101z" />
<glyph unicode="R" d="M1008 1581h98l-8 -102h-99zM1143 1432h100l-8 -101h-100zM860 1581h96l-6 -102h-100zM1130 1284h101l-8 -98h-101zM713 1581h96l-6 -102h-101zM1118 1135h101l-11 -99h-98zM561 1581h101l-9 -102h-98zM1106 987h98l-8 -100h-100zM414 1581h102l-10 -102h-98zM944 838h96 l-6 -99h-100zM254 1432h98l-8 -101h-98zM795 838h98l-8 -99h-99zM244 1284h96l-10 -98h-97zM647 838h98l-8 -99h-96zM784 688h97l-9 -96h-98zM229 1135h99l-9 -99h-98zM819 541h99l-7 -99h-102zM498 838h100l-8 -99h-101zM856 395h98l-8 -102h-100zM217 987h98l-10 -100 h-100zM348 838h103l-9 -99h-100zM891 246h98l-8 -101h-98zM190 688h97l-6 -96h-99zM178 541h96l-8 -99h-98zM164 395h100l-12 -102h-96zM150 246h98l-8 -101h-99z" />
<glyph unicode="S" d="M1008 1581h98l-8 -98h-99zM860 1581h96l-6 -98h-100zM713 1581h96l-6 -98h-101zM561 1581h101l-9 -98h-98zM414 1581h102l-10 -98h-98zM944 840h96l-6 -101h-100zM1077 692h103l-11 -98h-98zM254 1432h98l-8 -99h-98zM795 840h98l-8 -101h-99zM1065 543h100l-6 -99h-102z M244 1284h96l-10 -98h-97zM647 840h98l-8 -101h-96zM1055 395h98l-10 -100h-101zM229 1135h99l-9 -99h-98zM498 840h100l-8 -101h-101zM1038 246h103l-11 -99h-100zM217 987h98l-10 -100h-100zM348 840h103l-9 -101h-100zM879 96h96l-6 -96h-101zM731 96h96l-6 -96h-98z M582 96h100l-8 -96h-99zM432 96h103l-11 -96h-98zM287 96h100l-10 -96h-101z" />
<glyph unicode="T" d="M946 1581h96l-6 -102h-100zM797 1581h98l-8 -102h-99zM649 1581h99l-9 -102h-96zM500 1581h102l-10 -102h-100zM639 1432h96l-10 -101h-96zM352 1581h101l-9 -102h-100zM625 1284h98l-8 -98h-99zM612 1135h99l-9 -99h-98zM602 987h96l-12 -100h-96zM573 688h97l-6 -96 h-101zM559 541h100l-10 -99h-96zM549 395h96l-10 -102h-96zM535 246h96l-8 -101h-99z" />
<glyph unicode="U" d="M1143 1434h100l-8 -101h-100zM1130 1286h101l-8 -100h-101zM1118 1137h101l-11 -99h-98zM1106 989h98l-8 -98h-100zM1077 692h103l-11 -98h-98zM254 1434h98l-8 -101h-98zM1065 543h100l-6 -99h-102zM244 1286h96l-10 -100h-97zM1055 395h98l-10 -100h-101zM229 1137h99 l-9 -99h-98zM1038 248h103l-11 -101h-100zM217 989h98l-10 -98h-100zM879 100h96l-6 -100h-101zM190 692h97l-6 -98h-99zM731 100h96l-6 -100h-98zM178 543h96l-8 -99h-98zM582 100h100l-8 -100h-99zM164 395h100l-12 -100h-96zM432 100h103l-11 -100h-98zM150 248h98 l-8 -101h-99zM287 100h100l-10 -100h-101z" />
<glyph unicode="V" d="M1071 1432h96l-6 -99h-100zM1008 1284h100l-10 -98h-99zM946 1135h98l-8 -99h-100zM885 987h98l-10 -100h-99zM328 1432h100l-10 -99h-96zM317 1284h97l-6 -98h-101zM305 1135h96l-8 -99h-98zM291 987h100l-12 -100h-96zM559 692h103l-11 -100h-98zM500 543h98l-8 -99 h-98zM266 692h96l-8 -100h-98zM436 395h101l-13 -100h-96zM252 543h96l-6 -99h-96zM240 395h98l-10 -100h-99zM373 246h100l-8 -99h-100zM225 246h99l-9 -99h-98z" />
<glyph unicode="W" d="M1143 1432h100l-8 -99h-100zM1130 1284h101l-8 -98h-101zM1118 1135h101l-11 -99h-98zM1106 987h98l-8 -100h-100zM1077 692h103l-11 -100h-98zM254 1432h98l-8 -99h-98zM1065 543h100l-6 -99h-102zM244 1284h96l-10 -98h-97zM784 692h97l-9 -100h-98zM1055 395h98 l-10 -100h-101zM229 1135h99l-9 -99h-98zM819 543h99l-7 -99h-102zM1038 246h103l-11 -99h-100zM856 395h98l-8 -100h-100zM217 987h98l-10 -100h-100zM485 692h101l-8 -100h-101zM891 246h98l-8 -99h-98zM426 543h96l-6 -99h-100zM190 692h97l-6 -100h-99zM362 395h99 l-10 -100h-99zM178 543h96l-8 -99h-98zM164 395h100l-12 -100h-96zM299 246h98l-6 -99h-102zM150 246h98l-8 -99h-99z" />
<glyph unicode="X" d="M997 1432h99l-9 -99h-98zM934 1284h102l-10 -98h-98zM872 1135h101l-8 -99h-101zM406 1432h98l-6 -99h-103zM811 987h100l-12 -100h-96zM442 1284h97l-7 -98h-98zM479 1135h99l-9 -99h-98zM516 987h98l-10 -100h-100zM786 692h97l-9 -100h-98zM821 543h99l-9 -99h-100z M858 395h98l-8 -100h-100zM487 692h101l-8 -100h-101zM893 246h98l-8 -99h-98zM428 543h96l-6 -99h-100zM365 395h98l-10 -100h-99zM301 246h98l-6 -99h-102z" />
<glyph unicode="Y" d="M1112 1432h100l-10 -101h-100zM1098 1284h102l-10 -100h-98zM1087 1135h99l-6 -99h-103zM1075 987h99l-11 -100h-100zM911 838h99l-9 -99h-98zM1047 688h100l-6 -96h-103zM225 1432h97l-11 -101h-96zM766 838h96l-8 -99h-98zM1036 541h99l-9 -99h-100zM211 1284h98 l-8 -100h-98zM616 838h99l-10 -99h-97zM1022 393h100l-10 -100h-100zM199 1135h96l-6 -99h-99zM467 838h100l-8 -99h-100zM1008 246h100l-10 -101h-99zM184 987h101l-13 -100h-96zM319 838h99l-6 -99h-103zM848 96h98l-10 -98h-96zM700 96h97l-9 -98h-96zM553 96h96l-6 -98 h-100zM401 96h101l-6 -98h-103zM254 96h100l-8 -98h-98z" />
<glyph unicode="Z" d="M1010 1581h98l-10 -98h-97zM862 1581h96l-6 -98h-98zM997 1432h99l-9 -99h-98zM715 1581h96l-6 -98h-100zM934 1284h102l-10 -98h-98zM563 1581h101l-7 -98h-100zM872 1135h101l-8 -99h-101zM416 1581h102l-10 -98h-98zM811 987h100l-12 -100h-96zM487 692h101l-8 -98 h-101zM881 96h98l-8 -96h-99zM428 543h96l-6 -99h-100zM733 96h96l-6 -96h-100zM365 395h98l-10 -100h-99zM586 96h96l-6 -96h-98zM301 246h98l-6 -99h-102zM434 96h103l-11 -96h-98zM289 96h100l-10 -96h-98z" />
<glyph unicode="[" d="M713 1581h96l-6 -98h-101zM561 1581h101l-9 -98h-98zM414 1581h102l-10 -98h-98zM254 1432h98l-8 -99h-98zM244 1284h96l-10 -98h-97zM229 1135h99l-9 -99h-98zM217 987h98l-10 -100h-100zM190 692h97l-6 -98h-99zM178 543h96l-8 -99h-98zM582 96h100l-8 -96h-99z M164 395h100l-12 -100h-96zM432 96h103l-11 -96h-98zM150 246h98l-8 -99h-99zM287 96h100l-10 -96h-101z" />
<glyph unicode="\" d="M406 1432h98l-6 -99h-103zM442 1284h97l-7 -98h-98zM479 1135h99l-9 -99h-98zM516 987h98l-10 -100h-100zM786 692h97l-9 -100h-98zM821 543h99l-9 -99h-100zM858 395h98l-8 -100h-100zM893 246h98l-8 -99h-98z" />
<glyph unicode="]" d="M1008 1581h98l-8 -98h-99zM1143 1432h100l-8 -99h-100zM860 1581h96l-6 -98h-100zM1130 1284h101l-8 -98h-101zM713 1581h96l-6 -98h-101zM1118 1135h101l-11 -99h-98zM1106 987h98l-8 -100h-100zM1077 692h103l-11 -98h-98zM1065 543h100l-6 -99h-102zM1055 395h98 l-10 -100h-101zM1038 246h103l-11 -99h-100zM879 96h96l-6 -96h-101zM731 96h96l-6 -96h-98zM582 96h100l-8 -96h-99z" />
<glyph unicode="^" d="M664 1876h100l-10 -100h-97zM774 1726h98l-8 -98h-100zM520 1726h96l-6 -98h-96z" />
<glyph unicode="_" d="M922 -123h98l-8 -98h-99zM774 -123h98l-8 -98h-98zM627 -123h96l-6 -98h-96zM477 -123h101l-9 -98h-100zM328 -123h102l-10 -98h-98z" />
<glyph unicode="`" d="M592 2013h100l-10 -98h-96zM702 1866h99l-8 -101h-101z" />
<glyph unicode="a" d="M1008 1581h98l-8 -102h-99zM1143 1432h100l-8 -101h-100zM860 1581h96l-6 -102h-100zM1130 1284h101l-8 -98h-101zM713 1581h96l-6 -102h-101zM1118 1135h101l-11 -99h-98zM561 1581h101l-9 -102h-98zM1106 987h98l-8 -100h-100zM414 1581h102l-10 -102h-98zM944 838h96 l-6 -99h-100zM1077 688h103l-11 -96h-98zM254 1432h98l-8 -101h-98zM795 838h98l-8 -99h-99zM1065 541h100l-6 -99h-102zM244 1284h96l-10 -98h-97zM647 838h98l-8 -99h-96zM1055 395h98l-10 -102h-101zM229 1135h99l-9 -99h-98zM498 838h100l-8 -99h-101zM1038 246h103 l-11 -101h-100zM217 987h98l-10 -100h-100zM348 838h103l-9 -99h-100zM190 688h97l-6 -96h-99zM178 541h96l-8 -99h-98zM164 395h100l-12 -102h-96zM150 246h98l-8 -101h-99z" />
<glyph unicode="b" d="M940 1581h98l-8 -98h-98zM1077 1432h101l-11 -99h-98zM793 1581h98l-8 -98h-97zM1063 1284h100l-8 -98h-98zM645 1581h100l-10 -98h-96zM1053 1135h98l-8 -99h-101zM498 1581h98l-8 -98h-101zM633 1432h98l-8 -99h-98zM1038 987h103l-13 -100h-100zM348 1581h101l-11 -98 h-98zM623 1284h96l-8 -98h-99zM608 1135h97l-7 -99h-96zM877 840h96l-6 -101h-99zM1012 692h100l-10 -98h-98zM596 987h98l-10 -100h-98zM729 840h98l-8 -101h-98zM999 543h99l-6 -99h-101zM580 840h100l-10 -101h-97zM987 395h100l-10 -100h-102zM569 692h97l-7 -98h-100z M973 246h100l-10 -99h-98zM557 543h96l-8 -99h-96zM543 395h100l-12 -100h-96zM811 96h100l-10 -96h-96zM530 246h97l-6 -99h-101zM664 96h100l-10 -96h-97zM518 96h96l-8 -96h-98zM367 96h100l-8 -96h-101zM219 96h100l-10 -96h-98z" />
<glyph unicode="c" d="M1077 1581h97l-9 -98h-96zM930 1581h96l-8 -98h-98zM782 1581h97l-11 -98h-96zM631 1581h100l-8 -98h-100zM483 1581h99l-7 -98h-102zM324 1432h96l-8 -99h-97zM309 1284h101l-11 -98h-96zM299 1135h96l-6 -99h-100zM287 987h96l-10 -100h-99zM948 96h96l-8 -96h-98z M258 692h98l-8 -98h-98zM801 96h96l-6 -96h-100zM246 543h98l-8 -99h-98zM651 96h99l-9 -96h-98zM233 395h97l-8 -100h-97zM502 96h100l-8 -96h-98zM219 246h98l-10 -99h-96zM354 96h99l-7 -96h-100z" />
<glyph unicode="d" d="M940 1581h98l-8 -98h-98zM1077 1432h101l-11 -99h-98zM793 1581h98l-8 -98h-97zM1063 1284h100l-8 -98h-98zM645 1581h100l-10 -98h-96zM1053 1135h98l-8 -99h-101zM498 1581h98l-8 -98h-101zM633 1432h98l-8 -99h-98zM1038 987h103l-13 -100h-100zM348 1581h101l-11 -98 h-98zM623 1284h96l-8 -98h-99zM608 1135h97l-7 -99h-96zM1012 692h100l-10 -98h-98zM596 987h98l-10 -100h-98zM999 543h99l-6 -99h-101zM987 395h100l-10 -100h-102zM569 692h97l-7 -98h-100zM973 246h100l-10 -99h-98zM557 543h96l-8 -99h-96zM543 395h100l-12 -100h-96z M811 96h100l-10 -96h-96zM530 246h97l-6 -99h-101zM664 96h100l-10 -96h-97zM518 96h96l-8 -96h-98zM367 96h100l-8 -96h-101zM219 96h100l-10 -96h-98z" />
<glyph unicode="e" d="M1077 1581h97l-9 -98h-96zM930 1581h96l-8 -98h-98zM782 1581h97l-11 -98h-96zM631 1581h100l-8 -98h-100zM483 1581h99l-7 -98h-102zM1012 840h98l-10 -101h-96zM324 1432h96l-8 -99h-97zM864 840h99l-11 -101h-96zM309 1284h101l-11 -98h-96zM717 840h96l-6 -101h-100z M299 1135h96l-6 -99h-100zM567 840h99l-7 -101h-102zM287 987h96l-10 -100h-99zM418 840h100l-8 -101h-98zM948 96h96l-8 -96h-98zM258 692h98l-8 -98h-98zM801 96h96l-6 -96h-100zM246 543h98l-8 -99h-98zM651 96h99l-9 -96h-98zM233 395h97l-8 -100h-97zM502 96h100 l-8 -96h-98zM219 246h98l-10 -99h-96zM354 96h99l-7 -96h-100z" />
<glyph unicode="f" d="M1077 1581h97l-9 -102h-96zM930 1581h96l-8 -102h-98zM782 1581h97l-11 -102h-96zM631 1581h100l-8 -102h-100zM483 1581h99l-7 -102h-102zM1012 838h98l-10 -99h-96zM324 1432h96l-8 -101h-97zM864 838h99l-11 -99h-96zM309 1284h101l-11 -98h-96zM717 838h96l-6 -99 h-100zM299 1135h96l-6 -99h-100zM567 838h99l-7 -99h-102zM287 987h96l-10 -100h-99zM418 838h100l-8 -99h-98zM258 688h98l-8 -96h-98zM246 541h98l-8 -99h-98zM233 395h97l-8 -102h-97zM219 246h98l-10 -101h-96z" />
<glyph unicode="g" d="M1077 1581h97l-9 -98h-96zM930 1581h96l-8 -98h-98zM782 1581h97l-11 -98h-96zM631 1581h100l-8 -98h-100zM483 1581h99l-7 -98h-102zM324 1432h96l-8 -99h-97zM309 1284h101l-11 -98h-96zM850 692h100l-10 -98h-96zM299 1135h96l-6 -99h-100zM887 543h100l-8 -99h-100z M926 395h98l-8 -100h-103zM287 987h96l-10 -100h-99zM958 246h99l-6 -99h-99zM948 96h96l-8 -96h-98zM258 692h98l-8 -98h-98zM801 96h96l-6 -96h-100zM246 543h98l-8 -99h-98zM651 96h99l-9 -96h-98zM233 395h97l-8 -100h-97zM502 96h100l-8 -96h-98zM219 246h98l-10 -99 h-96zM354 96h99l-7 -96h-100z" />
<glyph unicode="h" d="M1143 1430h100l-8 -99h-100zM1130 1280h101l-8 -96h-101zM1118 1133h101l-11 -99h-98zM1106 985h98l-8 -100h-100zM944 838h96l-6 -101h-100zM1077 688h103l-11 -98h-98zM254 1430h98l-8 -99h-98zM795 838h98l-8 -101h-99zM1065 541h100l-6 -99h-102zM244 1280h96 l-10 -96h-97zM647 838h98l-8 -101h-96zM1055 393h98l-10 -100h-101zM229 1133h99l-9 -99h-98zM498 838h100l-8 -101h-101zM1038 244h103l-11 -99h-100zM217 985h98l-10 -100h-100zM348 838h103l-9 -101h-100zM190 688h97l-6 -98h-99zM178 541h96l-8 -99h-98zM164 393h100 l-12 -100h-96zM150 244h98l-8 -99h-99z" />
<glyph unicode="i" d="M1010 1581h98l-10 -98h-97zM862 1581h96l-6 -98h-98zM715 1581h96l-6 -98h-100zM563 1581h101l-7 -98h-100zM702 1432h99l-10 -99h-97zM416 1581h102l-10 -98h-98zM688 1284h98l-8 -98h-96zM678 1135h96l-8 -99h-98zM664 987h100l-12 -100h-99zM649 840h99l-9 -101h-96z M639 692h96l-10 -98h-96zM625 543h98l-8 -99h-99zM612 395h99l-11 -100h-98zM881 96h98l-8 -96h-99zM598 246h98l-10 -99h-96zM733 96h96l-6 -96h-100zM586 96h96l-6 -96h-98zM434 96h103l-11 -96h-98zM289 96h100l-10 -96h-98z" />
<glyph unicode="j" d="M1143 1434h100l-8 -101h-100zM1130 1286h101l-8 -100h-101zM1118 1137h101l-11 -99h-98zM1106 989h98l-8 -98h-100zM1077 692h103l-11 -98h-98zM1065 543h100l-6 -99h-102zM1055 395h98l-10 -100h-101zM1038 248h103l-11 -101h-100zM879 100h96l-6 -100h-101zM190 692h97 l-6 -98h-99zM731 100h96l-6 -100h-98zM178 543h96l-8 -99h-98zM582 100h100l-8 -100h-99zM164 395h100l-12 -100h-96zM432 100h103l-11 -100h-98zM150 248h98l-8 -101h-99zM287 100h100l-10 -100h-101z" />
<glyph unicode="k" d="M1028 1430h98l-8 -99h-98zM967 1280h98l-8 -96h-101zM903 1133h101l-11 -99h-98zM844 985h96l-8 -100h-101zM975 838h100l-10 -101h-96zM1112 688h100l-10 -98h-100zM289 1430h98l-10 -99h-96zM827 838h101l-10 -101h-97zM1098 541h102l-10 -99h-98zM274 1280h99l-8 -96 h-97zM682 838h96l-8 -101h-96zM1087 393h99l-8 -100h-101zM264 1133h96l-8 -99h-98zM532 838h99l-8 -101h-101zM1073 244h98l-8 -99h-100zM250 985h98l-10 -100h-98zM383 838h100l-6 -101h-102zM225 688h97l-11 -98h-96zM211 541h98l-8 -99h-98zM199 393h96l-8 -100h-101z M184 244h99l-11 -99h-96z" />
<glyph unicode="l" d="M389 1434h96l-8 -101h-98zM375 1286h98l-8 -100h-98zM362 1137h99l-8 -99h-99zM348 989h101l-13 -98h-96zM1012 100h98l-10 -100h-96zM324 692h96l-8 -98h-97zM864 100h99l-11 -100h-96zM309 543h101l-11 -99h-96zM717 100h96l-6 -100h-100zM299 395h96l-8 -100h-100z M567 100h99l-7 -100h-102zM285 248h96l-8 -101h-99zM418 100h100l-8 -100h-98z" />
<glyph unicode="m" d="M1143 1432h100l-8 -99h-100zM993 1432h101l-11 -99h-96zM1130 1284h101l-8 -98h-101zM1118 1135h101l-11 -99h-98zM932 1284h102l-10 -98h-98zM1106 987h98l-8 -100h-100zM868 1135h103l-8 -99h-101zM401 1432h101l-6 -99h-103zM809 987h100l-12 -100h-96zM1077 692h103 l-11 -100h-98zM438 1284h99l-7 -98h-98zM254 1432h98l-8 -99h-98zM477 1135h98l-8 -99h-98zM1065 543h100l-6 -99h-102zM244 1284h96l-10 -98h-97zM514 987h98l-10 -100h-100zM1055 395h98l-10 -100h-101zM229 1135h99l-9 -99h-98zM1038 246h103l-11 -99h-100zM217 987h98 l-10 -100h-100zM190 692h97l-6 -100h-99zM178 543h96l-8 -99h-98zM164 395h100l-12 -100h-96zM150 246h98l-8 -99h-99z" />
<glyph unicode="n" d="M1143 1432h100l-8 -99h-100zM1130 1284h101l-8 -98h-101zM1118 1135h101l-11 -99h-98zM1106 987h98l-8 -100h-100zM401 1432h101l-6 -99h-103zM1077 692h103l-11 -100h-98zM438 1284h99l-7 -98h-98zM254 1432h98l-8 -99h-98zM477 1135h98l-8 -99h-98zM1065 543h100 l-6 -99h-102zM244 1284h96l-10 -98h-97zM514 987h98l-10 -100h-100zM784 692h97l-9 -100h-98zM1055 395h98l-10 -100h-101zM229 1135h99l-9 -99h-98zM819 543h99l-7 -99h-102zM1038 246h103l-11 -99h-100zM856 395h98l-8 -100h-100zM217 987h98l-10 -100h-100zM891 246h98 l-8 -99h-98zM190 692h97l-6 -100h-99zM178 543h96l-8 -99h-98zM164 395h100l-12 -100h-96zM150 246h98l-8 -99h-99z" />
<glyph unicode="o" d="M1008 1581h98l-8 -98h-99zM1143 1432h100l-8 -99h-100zM860 1581h96l-6 -98h-100zM1130 1284h101l-8 -98h-101zM713 1581h96l-6 -98h-101zM1118 1135h101l-11 -99h-98zM561 1581h101l-9 -98h-98zM1106 987h98l-8 -100h-100zM414 1581h102l-10 -98h-98zM1077 692h103 l-11 -98h-98zM254 1432h98l-8 -99h-98zM1065 543h100l-6 -99h-102zM244 1284h96l-10 -98h-97zM1055 395h98l-10 -100h-101zM229 1135h99l-9 -99h-98zM1038 246h103l-11 -99h-100zM217 987h98l-10 -100h-100zM879 96h96l-6 -96h-101zM190 692h97l-6 -98h-99zM731 96h96 l-6 -96h-98zM178 543h96l-8 -99h-98zM582 96h100l-8 -96h-99zM164 395h100l-12 -100h-96zM432 96h103l-11 -96h-98zM150 246h98l-8 -99h-99zM287 96h100l-10 -96h-101z" />
<glyph unicode="p" d="M1008 1581h98l-8 -102h-99zM1143 1432h100l-8 -101h-100zM860 1581h96l-6 -102h-100zM1130 1284h101l-8 -98h-101zM713 1581h96l-6 -102h-101zM1118 1135h101l-11 -99h-98zM561 1581h101l-9 -102h-98zM1106 987h98l-8 -100h-100zM414 1581h102l-10 -102h-98zM944 838h96 l-6 -99h-100zM254 1432h98l-8 -101h-98zM795 838h98l-8 -99h-99zM244 1284h96l-10 -98h-97zM647 838h98l-8 -99h-96zM229 1135h99l-9 -99h-98zM498 838h100l-8 -99h-101zM217 987h98l-10 -100h-100zM348 838h103l-9 -99h-100zM190 688h97l-6 -96h-99zM178 541h96l-8 -99h-98 zM164 395h100l-12 -102h-96zM150 246h98l-8 -101h-99z" />
<glyph unicode="q" d="M1008 1581h98l-8 -98h-99zM1143 1432h100l-8 -99h-100zM860 1581h96l-6 -98h-100zM1130 1284h101l-8 -98h-101zM713 1581h96l-6 -98h-101zM1118 1135h101l-11 -99h-98zM561 1581h101l-9 -98h-98zM1106 987h98l-8 -100h-100zM414 1581h102l-10 -98h-98zM1077 692h103 l-11 -98h-98zM254 1432h98l-8 -99h-98zM1065 543h100l-6 -99h-102zM244 1284h96l-10 -98h-97zM784 692h97l-9 -98h-98zM1055 395h98l-10 -100h-101zM229 1135h99l-9 -99h-98zM819 543h99l-7 -99h-102zM1038 246h103l-11 -99h-100zM856 395h98l-8 -100h-100zM217 987h98 l-10 -100h-100zM891 246h98l-8 -99h-98zM879 96h96l-6 -96h-101zM190 692h97l-6 -98h-99zM731 96h96l-6 -96h-98zM178 543h96l-8 -99h-98zM582 96h100l-8 -96h-99zM164 395h100l-12 -100h-96zM432 96h103l-11 -96h-98zM150 246h98l-8 -99h-99zM287 96h100l-10 -96h-101z" />
<glyph unicode="r" d="M1008 1581h98l-8 -102h-99zM1143 1432h100l-8 -101h-100zM860 1581h96l-6 -102h-100zM1130 1284h101l-8 -98h-101zM713 1581h96l-6 -102h-101zM1118 1135h101l-11 -99h-98zM561 1581h101l-9 -102h-98zM1106 987h98l-8 -100h-100zM414 1581h102l-10 -102h-98zM944 838h96 l-6 -99h-100zM254 1432h98l-8 -101h-98zM795 838h98l-8 -99h-99zM244 1284h96l-10 -98h-97zM647 838h98l-8 -99h-96zM784 688h97l-9 -96h-98zM229 1135h99l-9 -99h-98zM819 541h99l-7 -99h-102zM498 838h100l-8 -99h-101zM856 395h98l-8 -102h-100zM217 987h98l-10 -100 h-100zM348 838h103l-9 -99h-100zM891 246h98l-8 -101h-98zM190 688h97l-6 -96h-99zM178 541h96l-8 -99h-98zM164 395h100l-12 -102h-96zM150 246h98l-8 -101h-99z" />
<glyph unicode="s" d="M1008 1581h98l-8 -98h-99zM860 1581h96l-6 -98h-100zM713 1581h96l-6 -98h-101zM561 1581h101l-9 -98h-98zM414 1581h102l-10 -98h-98zM944 840h96l-6 -101h-100zM1077 692h103l-11 -98h-98zM254 1432h98l-8 -99h-98zM795 840h98l-8 -101h-99zM1065 543h100l-6 -99h-102z M244 1284h96l-10 -98h-97zM647 840h98l-8 -101h-96zM1055 395h98l-10 -100h-101zM229 1135h99l-9 -99h-98zM498 840h100l-8 -101h-101zM1038 246h103l-11 -99h-100zM217 987h98l-10 -100h-100zM348 840h103l-9 -101h-100zM879 96h96l-6 -96h-101zM731 96h96l-6 -96h-98z M582 96h100l-8 -96h-99zM432 96h103l-11 -96h-98zM287 96h100l-10 -96h-101z" />
<glyph unicode="t" d="M946 1581h96l-6 -102h-100zM797 1581h98l-8 -102h-99zM649 1581h99l-9 -102h-96zM500 1581h102l-10 -102h-100zM639 1432h96l-10 -101h-96zM352 1581h101l-9 -102h-100zM625 1284h98l-8 -98h-99zM612 1135h99l-9 -99h-98zM602 987h96l-12 -100h-96zM573 688h97l-6 -96 h-101zM559 541h100l-10 -99h-96zM549 395h96l-10 -102h-96zM535 246h96l-8 -101h-99z" />
<glyph unicode="u" d="M1143 1434h100l-8 -101h-100zM1130 1286h101l-8 -100h-101zM1118 1137h101l-11 -99h-98zM1106 989h98l-8 -98h-100zM1077 692h103l-11 -98h-98zM254 1434h98l-8 -101h-98zM1065 543h100l-6 -99h-102zM244 1286h96l-10 -100h-97zM1055 395h98l-10 -100h-101zM229 1137h99 l-9 -99h-98zM1038 248h103l-11 -101h-100zM217 989h98l-10 -98h-100zM879 100h96l-6 -100h-101zM190 692h97l-6 -98h-99zM731 100h96l-6 -100h-98zM178 543h96l-8 -99h-98zM582 100h100l-8 -100h-99zM164 395h100l-12 -100h-96zM432 100h103l-11 -100h-98zM150 248h98 l-8 -101h-99zM287 100h100l-10 -100h-101z" />
<glyph unicode="v" d="M1071 1432h96l-6 -99h-100zM1008 1284h100l-10 -98h-99zM946 1135h98l-8 -99h-100zM885 987h98l-10 -100h-99zM328 1432h100l-10 -99h-96zM317 1284h97l-6 -98h-101zM305 1135h96l-8 -99h-98zM291 987h100l-12 -100h-96zM559 692h103l-11 -100h-98zM500 543h98l-8 -99 h-98zM266 692h96l-8 -100h-98zM436 395h101l-13 -100h-96zM252 543h96l-6 -99h-96zM240 395h98l-10 -100h-99zM373 246h100l-8 -99h-100zM225 246h99l-9 -99h-98z" />
<glyph unicode="w" d="M1143 1432h100l-8 -99h-100zM1130 1284h101l-8 -98h-101zM1118 1135h101l-11 -99h-98zM1106 987h98l-8 -100h-100zM1077 692h103l-11 -100h-98zM254 1432h98l-8 -99h-98zM1065 543h100l-6 -99h-102zM244 1284h96l-10 -98h-97zM784 692h97l-9 -100h-98zM1055 395h98 l-10 -100h-101zM229 1135h99l-9 -99h-98zM819 543h99l-7 -99h-102zM1038 246h103l-11 -99h-100zM856 395h98l-8 -100h-100zM217 987h98l-10 -100h-100zM485 692h101l-8 -100h-101zM891 246h98l-8 -99h-98zM426 543h96l-6 -99h-100zM190 692h97l-6 -100h-99zM362 395h99 l-10 -100h-99zM178 543h96l-8 -99h-98zM164 395h100l-12 -100h-96zM299 246h98l-6 -99h-102zM150 246h98l-8 -99h-99z" />
<glyph unicode="x" d="M997 1432h99l-9 -99h-98zM934 1284h102l-10 -98h-98zM872 1135h101l-8 -99h-101zM406 1432h98l-6 -99h-103zM811 987h100l-12 -100h-96zM442 1284h97l-7 -98h-98zM479 1135h99l-9 -99h-98zM516 987h98l-10 -100h-100zM786 692h97l-9 -100h-98zM821 543h99l-9 -99h-100z M858 395h98l-8 -100h-100zM487 692h101l-8 -100h-101zM893 246h98l-8 -99h-98zM428 543h96l-6 -99h-100zM365 395h98l-10 -100h-99zM301 246h98l-6 -99h-102z" />
<glyph unicode="y" d="M1112 1432h100l-10 -101h-100zM1098 1284h102l-10 -100h-98zM1087 1135h99l-6 -99h-103zM1075 987h99l-11 -100h-100zM911 838h99l-9 -99h-98zM1047 688h100l-6 -96h-103zM225 1432h97l-11 -101h-96zM766 838h96l-8 -99h-98zM1036 541h99l-9 -99h-100zM211 1284h98 l-8 -100h-98zM616 838h99l-10 -99h-97zM1022 393h100l-10 -100h-100zM199 1135h96l-6 -99h-99zM467 838h100l-8 -99h-100zM1008 246h100l-10 -101h-99zM184 987h101l-13 -100h-96zM319 838h99l-6 -99h-103zM848 96h98l-10 -98h-96zM700 96h97l-9 -98h-96zM553 96h96l-6 -98 h-100zM401 96h101l-6 -98h-103zM254 96h100l-8 -98h-98z" />
<glyph unicode="z" d="M1010 1581h98l-10 -98h-97zM862 1581h96l-6 -98h-98zM997 1432h99l-9 -99h-98zM715 1581h96l-6 -98h-100zM934 1284h102l-10 -98h-98zM563 1581h101l-7 -98h-100zM872 1135h101l-8 -99h-101zM416 1581h102l-10 -98h-98zM811 987h100l-12 -100h-96zM487 692h101l-8 -98 h-101zM881 96h98l-8 -96h-99zM428 543h96l-6 -99h-100zM733 96h96l-6 -96h-100zM365 395h98l-10 -100h-99zM586 96h96l-6 -96h-98zM301 246h98l-6 -99h-102zM434 96h103l-11 -96h-98zM289 96h100l-10 -96h-98z" />
<glyph unicode="{" d="M713 1581h96l-6 -98h-101zM582 96h100l-8 -96h-99zM702 1432h97l-6 -99h-99zM641 1284h98l-6 -98h-102zM578 1135h100l-8 -99h-101zM518 987h96l-8 -100h-100zM489 692h101l-10 -100h-97zM526 543h101l-11 -99h-98zM563 395h101l-13 -100h-98zM598 246h98l-8 -99h-98z " />
<glyph unicode="|" d="M705 1423h100l-10 -98h-97zM694 1276h97l-7 -98h-100zM682 1128h96l-8 -100h-96zM668 981h98l-10 -100h-97zM653 829h99l-7 -96h-100zM641 682h98l-8 -96h-98zM629 535h96l-6 -101h-98zM616 387h99l-13 -100h-96zM602 238h98l-8 -99h-98zM590 90h96l-6 -100h-100z" />
<glyph unicode="}" d="M643 1432h102l-10 -99h-100zM682 1284h96l-8 -98h-96zM719 1135h96l-8 -99h-96zM754 987h100l-10 -100h-99zM725 692h102l-8 -100h-100zM666 543h100l-10 -99h-97zM604 395h98l-10 -100h-98zM539 246h102l-10 -99h-99zM657 1581h97l-6 -98h-101zM526 96h101l-9 -96h-98z " />
<glyph unicode="&#xa0;" />
<glyph unicode="&#xa1;" d="M715 -2h-99l11 98h96zM729 145h-98l8 101h96zM739 293h-96l8 100h99zM754 442h-101l13 99h98zM768 592h-98l8 96h98zM778 739h-96l10 99h96zM793 887h-99l8 100h99zM831 1331h-96l6 101h99z" />
<glyph unicode="&#xa5;" d="M997 1432h99l-9 -99h-98zM934 1284h102l-10 -98h-98zM872 1135h101l-8 -99h-101zM406 1432h98l-6 -99h-103zM811 987h100l-12 -100h-96zM442 1284h97l-7 -98h-98zM479 1135h99l-9 -99h-98zM516 987h98l-10 -100h-100zM932 692h96l-6 -100h-100zM784 692h97l-7 -100h-100z M635 692h98l-8 -100h-96zM485 692h103l-10 -100h-99zM338 692h100l-8 -100h-100zM903 395h98l-8 -100h-98zM756 395h98l-8 -100h-98zM608 395h97l-7 -100h-96zM459 395h100l-8 -100h-100zM309 395h103l-11 -100h-98zM623 543h100l-8 -99h-101zM596 246h100l-10 -99h-98z" />
<glyph unicode="&#xa8;" d="M498 2023h98l-8 -100h-99zM797 2023h98l-8 -100h-96z" />
<glyph unicode="&#xa9;" d="M1008 1581h98l-8 -98h-99zM1143 1432h100l-8 -99h-100zM860 1581h96l-6 -98h-100zM1130 1284h101l-8 -98h-101zM713 1581h96l-6 -98h-101zM1118 1135h101l-11 -99h-98zM561 1581h101l-9 -98h-98zM1106 987h98l-8 -100h-100zM414 1581h102l-10 -98h-98zM1077 692h103 l-11 -98h-98zM254 1432h98l-8 -99h-98zM1065 543h100l-6 -99h-102zM244 1284h96l-10 -98h-97zM1055 395h98l-10 -100h-101zM229 1135h99l-9 -99h-98zM1038 246h103l-11 -99h-100zM217 987h98l-10 -100h-100zM879 96h96l-6 -96h-101zM190 692h97l-6 -98h-99zM731 96h96 l-6 -96h-98zM178 543h96l-8 -99h-98zM582 96h100l-8 -96h-99zM164 395h100l-12 -100h-96zM432 96h103l-11 -96h-98zM150 246h98l-8 -99h-99zM287 96h100l-10 -96h-101zM838 1284h96l-8 -100h-99zM688 1284h98l-10 -100h-96zM522 1133h101l-9 -99h-100zM506 987h100l-8 -100 h-100zM489 838h101l-8 -101h-101zM477 692h98l-6 -100h-102zM461 541h98l-6 -99h-102zM741 395h99l-11 -100h-96zM594 395h98l-10 -100h-96z" />
<glyph unicode="&#xab;" horiz-adv-x="2775" d="M754 1432h96l-6 -99h-99zM692 1284h99l-7 -98h-102zM629 1135h100l-8 -99h-100zM569 987h97l-9 -100h-100zM541 692h100l-10 -100h-96zM578 543h100l-10 -99h-99zM614 395h101l-13 -100h-98zM649 246h99l-9 -99h-98zM2140 1432h96l-6 -99h-98zM2079 1284h98l-6 -98h-103z M2015 1135h101l-9 -99h-100zM1956 987h96l-8 -100h-100zM1927 692h101l-11 -100h-96zM1964 543h100l-10 -99h-98zM2001 395h100l-12 -100h-98zM2036 246h98l-8 -99h-98z" />
<glyph unicode="&#xad;" d="M946 840h96l-6 -101h-100zM797 840h98l-8 -101h-99zM649 840h99l-9 -101h-96zM500 840h102l-10 -101h-100zM352 840h101l-9 -101h-100z" />
<glyph unicode="&#xae;" d="M1008 1581h98l-8 -98h-99zM1143 1432h100l-8 -99h-100zM860 1581h96l-6 -98h-100zM1130 1284h101l-8 -98h-101zM713 1581h96l-6 -98h-101zM1118 1135h101l-11 -99h-98zM561 1581h101l-9 -98h-98zM1106 987h98l-8 -100h-100zM414 1581h102l-10 -98h-98zM1077 692h103 l-11 -98h-98zM254 1432h98l-8 -99h-98zM1065 543h100l-6 -99h-102zM244 1284h96l-10 -98h-97zM1055 395h98l-10 -100h-101zM229 1135h99l-9 -99h-98zM1038 246h103l-11 -99h-100zM217 987h98l-10 -100h-100zM879 96h96l-6 -96h-101zM190 692h97l-6 -98h-99zM731 96h96 l-6 -96h-98zM178 543h96l-8 -99h-98zM582 96h100l-8 -96h-99zM164 395h100l-12 -100h-96zM432 96h103l-11 -96h-98zM150 246h98l-8 -99h-99zM287 96h100l-10 -96h-101zM688 1284h98l-10 -100h-96zM539 1284h100l-8 -100h-101zM821 1133h97l-9 -99h-98zM522 1133h101l-9 -99 h-100zM805 987h96l-8 -100h-98zM506 987h100l-8 -100h-100zM641 838h96l-8 -101h-98zM489 838h101l-8 -101h-101zM774 692h98l-10 -100h-96zM477 692h98l-6 -100h-102zM758 541h98l-10 -99h-96zM461 541h98l-6 -99h-102zM741 395h99l-11 -100h-96zM444 395h99l-6 -100h-103z " />
<glyph unicode="&#xb4;" d="M719 2013h100l-10 -98h-96zM575 1866h99l-8 -101h-97z" />
<glyph unicode="&#xb8;" d="M715 -92h96l-6 -101h-100zM582 -199h98l-10 -100h-97z" />
<glyph unicode="&#xbb;" horiz-adv-x="2775" d="M643 1432h102l-10 -99h-100zM682 1284h96l-8 -98h-96zM719 1135h96l-8 -99h-96zM754 987h100l-10 -100h-99zM725 692h102l-8 -100h-100zM666 543h100l-10 -99h-97zM604 395h98l-10 -100h-98zM539 246h102l-10 -99h-99zM2030 1432h102l-10 -99h-101zM2068 1284h97l-8 -98 h-97zM2105 1135h97l-9 -99h-96zM2140 987h101l-11 -100h-98zM2111 692h103l-8 -100h-101zM2052 543h100l-10 -99h-96zM1991 395h98l-10 -100h-99zM1925 246h103l-11 -99h-98z" />
<glyph unicode="&#xbf;" d="M408 -150h-99l8 99h97zM270 0h-98l8 96h101zM555 -150h-100l10 99h96zM285 147h-101l9 99h98zM702 -150h-98l8 99h99zM295 295h-98l8 100h100zM850 -150h-98l8 99h100zM309 444h-100l10 99h100zM999 -150h-100l10 99h99zM471 592h-98l8 100h98zM621 592h-101l10 100h97z M768 592h-100l10 100h96zM915 592h-100l10 100h101zM1063 592h-98l8 100h100zM1225 739h-99l9 101h98zM1237 887h-96l6 100h98zM1249 1036h-98l12 99h97zM1286 1333h-102l10 99h98z" />
<glyph unicode="&#xc0;" d="M1008 1581h98l-8 -102h-99zM1143 1432h100l-8 -101h-100zM860 1581h96l-6 -102h-100zM1130 1284h101l-8 -98h-101zM713 1581h96l-6 -102h-101zM1118 1135h101l-11 -99h-98zM561 1581h101l-9 -102h-98zM1106 987h98l-8 -100h-100zM414 1581h102l-10 -102h-98zM944 838h96 l-6 -99h-100zM1077 688h103l-11 -96h-98zM254 1432h98l-8 -101h-98zM795 838h98l-8 -99h-99zM1065 541h100l-6 -99h-102zM244 1284h96l-10 -98h-97zM647 838h98l-8 -99h-96zM1055 395h98l-10 -102h-101zM229 1135h99l-9 -99h-98zM498 838h100l-8 -99h-101zM1038 246h103 l-11 -101h-100zM217 987h98l-10 -100h-100zM348 838h103l-9 -99h-100zM190 688h97l-6 -96h-99zM178 541h96l-8 -99h-98zM164 395h100l-12 -102h-96zM150 246h98l-8 -101h-99zM631 2013h100l-10 -98h-96zM741 1866h99l-9 -101h-100z" />
<glyph unicode="&#xc1;" d="M1008 1581h98l-8 -102h-99zM1143 1432h100l-8 -101h-100zM860 1581h96l-6 -102h-100zM1130 1284h101l-8 -98h-101zM713 1581h96l-6 -102h-101zM1118 1135h101l-11 -99h-98zM561 1581h101l-9 -102h-98zM1106 987h98l-8 -100h-100zM414 1581h102l-10 -102h-98zM944 838h96 l-6 -99h-100zM1077 688h103l-11 -96h-98zM254 1432h98l-8 -101h-98zM795 838h98l-8 -99h-99zM1065 541h100l-6 -99h-102zM244 1284h96l-10 -98h-97zM647 838h98l-8 -99h-96zM1055 395h98l-10 -102h-101zM229 1135h99l-9 -99h-98zM498 838h100l-8 -99h-101zM1038 246h103 l-11 -101h-100zM217 987h98l-10 -100h-100zM348 838h103l-9 -99h-100zM190 688h97l-6 -96h-99zM178 541h96l-8 -99h-98zM164 395h100l-12 -102h-96zM150 246h98l-8 -101h-99zM881 2013h100l-10 -98h-97zM737 1866h99l-9 -101h-96z" />
<glyph unicode="&#xc2;" d="M1008 1581h98l-8 -102h-99zM1143 1432h100l-8 -101h-100zM860 1581h96l-6 -102h-100zM1130 1284h101l-8 -98h-101zM713 1581h96l-6 -102h-101zM1118 1135h101l-11 -99h-98zM561 1581h101l-9 -102h-98zM1106 987h98l-8 -100h-100zM414 1581h102l-10 -102h-98zM944 838h96 l-6 -99h-100zM1077 688h103l-11 -96h-98zM254 1432h98l-8 -101h-98zM795 838h98l-8 -99h-99zM1065 541h100l-6 -99h-102zM244 1284h96l-10 -98h-97zM647 838h98l-8 -99h-96zM1055 395h98l-10 -102h-101zM229 1135h99l-9 -99h-98zM498 838h100l-8 -99h-101zM1038 246h103 l-11 -101h-100zM217 987h98l-10 -100h-100zM348 838h103l-9 -99h-100zM190 688h97l-6 -96h-99zM178 541h96l-8 -99h-98zM164 395h100l-12 -102h-96zM150 246h98l-8 -101h-99zM745 2013h101l-10 -98h-97zM856 1866h98l-8 -101h-100zM602 1866h96l-6 -101h-96z" />
<glyph unicode="&#xc3;" d="M1008 1581h98l-8 -102h-99zM1143 1432h100l-8 -101h-100zM860 1581h96l-6 -102h-100zM1130 1284h101l-8 -98h-101zM713 1581h96l-6 -102h-101zM1118 1135h101l-11 -99h-98zM561 1581h101l-9 -102h-98zM1106 987h98l-8 -100h-100zM414 1581h102l-10 -102h-98zM944 838h96 l-6 -99h-100zM1077 688h103l-11 -96h-98zM254 1432h98l-8 -101h-98zM795 838h98l-8 -99h-99zM1065 541h100l-6 -99h-102zM244 1284h96l-10 -98h-97zM647 838h98l-8 -99h-96zM1055 395h98l-10 -102h-101zM229 1135h99l-9 -99h-98zM498 838h100l-8 -99h-101zM1038 246h103 l-11 -101h-100zM217 987h98l-10 -100h-100zM348 838h103l-9 -99h-100zM190 688h97l-6 -96h-99zM178 541h96l-8 -99h-98zM164 395h100l-12 -102h-96zM150 246h98l-8 -101h-99zM731 2013h100l-10 -98h-96zM842 1866h98l-8 -101h-101zM588 1866h96l-6 -101h-96zM985 2013h100 l-10 -98h-96z" />
<glyph unicode="&#xc4;" d="M1008 1581h98l-8 -102h-99zM1143 1432h100l-8 -101h-100zM860 1581h96l-6 -102h-100zM1130 1284h101l-8 -98h-101zM713 1581h96l-6 -102h-101zM1118 1135h101l-11 -99h-98zM561 1581h101l-9 -102h-98zM1106 987h98l-8 -100h-100zM414 1581h102l-10 -102h-98zM944 838h96 l-6 -99h-100zM1077 688h103l-11 -96h-98zM254 1432h98l-8 -101h-98zM795 838h98l-8 -99h-99zM1065 541h100l-6 -99h-102zM244 1284h96l-10 -98h-97zM647 838h98l-8 -99h-96zM1055 395h98l-10 -102h-101zM229 1135h99l-9 -99h-98zM498 838h100l-8 -99h-101zM1038 246h103 l-11 -101h-100zM217 987h98l-10 -100h-100zM348 838h103l-9 -99h-100zM190 688h97l-6 -96h-99zM178 541h96l-8 -99h-98zM164 395h100l-12 -102h-96zM150 246h98l-8 -101h-99zM594 2023h98l-8 -100h-98zM893 2023h98l-8 -100h-96z" />
<glyph unicode="&#xc5;" d="M1008 1581h98l-8 -102h-99zM1143 1432h100l-8 -101h-100zM860 1581h96l-6 -102h-100zM1130 1284h101l-8 -98h-101zM713 1581h96l-6 -102h-101zM1118 1135h101l-11 -99h-98zM561 1581h101l-9 -102h-98zM1106 987h98l-8 -100h-100zM414 1581h102l-10 -102h-98zM944 838h96 l-6 -99h-100zM1077 688h103l-11 -96h-98zM254 1432h98l-8 -101h-98zM795 838h98l-8 -99h-99zM1065 541h100l-6 -99h-102zM244 1284h96l-10 -98h-97zM647 838h98l-8 -99h-96zM1055 395h98l-10 -102h-101zM229 1135h99l-9 -99h-98zM498 838h100l-8 -99h-101zM1038 246h103 l-11 -101h-100zM217 987h98l-10 -100h-100zM348 838h103l-9 -99h-100zM190 688h97l-6 -96h-99zM178 541h96l-8 -99h-98zM164 395h100l-12 -102h-96zM150 246h98l-8 -101h-99zM780 2159h99l-9 -97h-98zM891 2013h98l-10 -98h-100zM637 2013h98l-10 -98h-96zM735 1868h99 l-9 -96h-98z" />
<glyph unicode="&#xc6;" d="M1182 1589h96l-8 -100h-99zM1030 1589h100l-6 -100h-102zM883 1589h100l-8 -100h-101zM1116 846h98l-8 -98h-98zM967 846h98l-6 -98h-103zM819 846h99l-7 -98h-100zM1053 104h96l-6 -98h-101zM901 104h100l-8 -98h-98zM754 104h100l-8 -98h-98zM588 1591h96l-6 -102h-100 zM721 1440h102l-10 -99h-98zM711 1292h98l-6 -96h-103zM698 1145h99l-9 -101h-100zM436 1591h101l-7 -102h-100zM684 997h100l-10 -100h-98zM289 1591h102l-10 -102h-98zM522 846h99l-9 -96h-98zM657 698h101l-8 -96h-101zM129 1440h98l-8 -99h-98zM645 551h100l-8 -100 h-102zM119 1292h96l-10 -96h-96zM633 406h100l-12 -103h-98zM104 1145h99l-8 -101h-99zM373 846h100l-8 -96h-100zM616 254h103l-8 -98h-101zM92 997h98l-10 -100h-98zM225 846h101l-9 -96h-100zM66 698h96l-6 -96h-99zM53 551h97l-9 -100h-98zM39 406h100l-12 -103h-96z M25 254h98l-8 -98h-99z" />
<glyph unicode="&#xc7;" d="M1077 1581h97l-9 -98h-96zM930 1581h96l-8 -98h-98zM782 1581h97l-11 -98h-96zM631 1581h100l-8 -98h-100zM483 1581h99l-7 -98h-102zM324 1432h96l-8 -99h-97zM309 1284h101l-11 -98h-96zM299 1135h96l-6 -99h-100zM287 987h96l-10 -100h-99zM948 96h96l-8 -96h-98z M258 692h98l-8 -98h-98zM801 96h96l-6 -96h-100zM246 543h98l-8 -99h-98zM651 96h99l-9 -96h-98zM233 395h97l-8 -100h-97zM502 96h100l-8 -96h-98zM219 246h98l-10 -99h-96zM354 96h99l-7 -96h-100zM623 -92h96l-6 -101h-101zM489 -199h99l-10 -100h-97z" />
<glyph unicode="&#xc8;" d="M1077 1581h97l-9 -98h-96zM930 1581h96l-8 -98h-98zM782 1581h97l-11 -98h-96zM631 1581h100l-8 -98h-100zM483 1581h99l-7 -98h-102zM1012 840h98l-10 -101h-96zM324 1432h96l-8 -99h-97zM864 840h99l-11 -101h-96zM309 1284h101l-11 -98h-96zM717 840h96l-6 -101h-100z M299 1135h96l-6 -99h-100zM567 840h99l-7 -101h-102zM287 987h96l-10 -100h-99zM418 840h100l-8 -101h-98zM948 96h96l-8 -96h-98zM258 692h98l-8 -98h-98zM801 96h96l-6 -96h-100zM246 543h98l-8 -99h-98zM651 96h99l-9 -96h-98zM233 395h97l-8 -100h-97zM502 96h100 l-8 -96h-98zM219 246h98l-10 -99h-96zM354 96h99l-7 -96h-100zM698 2013h101l-11 -98h-96zM809 1866h98l-8 -101h-100z" />
<glyph unicode="&#xc9;" d="M1077 1581h97l-9 -98h-96zM930 1581h96l-8 -98h-98zM782 1581h97l-11 -98h-96zM631 1581h100l-8 -98h-100zM483 1581h99l-7 -98h-102zM1012 840h98l-10 -101h-96zM324 1432h96l-8 -99h-97zM864 840h99l-11 -101h-96zM309 1284h101l-11 -98h-96zM717 840h96l-6 -101h-100z M299 1135h96l-6 -99h-100zM567 840h99l-7 -101h-102zM287 987h96l-10 -100h-99zM418 840h100l-8 -101h-98zM948 96h96l-8 -96h-98zM258 692h98l-8 -98h-98zM801 96h96l-6 -96h-100zM246 543h98l-8 -99h-98zM651 96h99l-9 -96h-98zM233 395h97l-8 -100h-97zM502 96h100 l-8 -96h-98zM219 246h98l-10 -99h-96zM354 96h99l-7 -96h-100zM967 2013h100l-10 -98h-96zM823 1866h99l-9 -101h-96z" />
<glyph unicode="&#xca;" d="M1077 1581h97l-9 -98h-96zM930 1581h96l-8 -98h-98zM782 1581h97l-11 -98h-96zM631 1581h100l-8 -98h-100zM483 1581h99l-7 -98h-102zM1012 840h98l-10 -101h-96zM324 1432h96l-8 -99h-97zM864 840h99l-11 -101h-96zM309 1284h101l-11 -98h-96zM717 840h96l-6 -101h-100z M299 1135h96l-6 -99h-100zM567 840h99l-7 -101h-102zM287 987h96l-10 -100h-99zM418 840h100l-8 -101h-98zM948 96h96l-8 -96h-98zM258 692h98l-8 -98h-98zM801 96h96l-6 -96h-100zM246 543h98l-8 -99h-98zM651 96h99l-9 -96h-98zM233 395h97l-8 -100h-97zM502 96h100 l-8 -96h-98zM219 246h98l-10 -99h-96zM354 96h99l-7 -96h-100zM809 2013h100l-10 -98h-96zM920 1866h98l-8 -101h-101zM666 1866h96l-6 -101h-97z" />
<glyph unicode="&#xcb;" d="M1077 1581h97l-9 -98h-96zM930 1581h96l-8 -98h-98zM782 1581h97l-11 -98h-96zM631 1581h100l-8 -98h-100zM483 1581h99l-7 -98h-102zM1012 840h98l-10 -101h-96zM324 1432h96l-8 -99h-97zM864 840h99l-11 -101h-96zM309 1284h101l-11 -98h-96zM717 840h96l-6 -101h-100z M299 1135h96l-6 -99h-100zM567 840h99l-7 -101h-102zM287 987h96l-10 -100h-99zM418 840h100l-8 -101h-98zM948 96h96l-8 -96h-98zM258 692h98l-8 -98h-98zM801 96h96l-6 -96h-100zM246 543h98l-8 -99h-98zM651 96h99l-9 -96h-98zM233 395h97l-8 -100h-97zM502 96h100 l-8 -96h-98zM219 246h98l-10 -99h-96zM354 96h99l-7 -96h-100zM670 2023h98l-8 -100h-98zM969 2023h98l-8 -100h-96z" />
<glyph unicode="&#xcc;" d="M1010 1581h98l-10 -98h-97zM862 1581h96l-6 -98h-98zM715 1581h96l-6 -98h-100zM563 1581h101l-7 -98h-100zM702 1432h99l-10 -99h-97zM416 1581h102l-10 -98h-98zM688 1284h98l-8 -98h-96zM678 1135h96l-8 -99h-98zM664 987h100l-12 -100h-99zM649 840h99l-9 -101h-96z M639 692h96l-10 -98h-96zM625 543h98l-8 -99h-99zM612 395h99l-11 -100h-98zM881 96h98l-8 -96h-99zM598 246h98l-10 -99h-96zM733 96h96l-6 -96h-100zM586 96h96l-6 -96h-98zM434 96h103l-11 -96h-98zM289 96h100l-10 -96h-98zM629 2013h100l-10 -98h-96zM739 1866h99 l-9 -101h-100z" />
<glyph unicode="&#xcd;" d="M1010 1581h98l-10 -98h-97zM862 1581h96l-6 -98h-98zM715 1581h96l-6 -98h-100zM563 1581h101l-7 -98h-100zM702 1432h99l-10 -99h-97zM416 1581h102l-10 -98h-98zM688 1284h98l-8 -98h-96zM678 1135h96l-8 -99h-98zM664 987h100l-12 -100h-99zM649 840h99l-9 -101h-96z M639 692h96l-10 -98h-96zM625 543h98l-8 -99h-99zM612 395h99l-11 -100h-98zM881 96h98l-8 -96h-99zM598 246h98l-10 -99h-96zM733 96h96l-6 -96h-100zM586 96h96l-6 -96h-98zM434 96h103l-11 -96h-98zM289 96h100l-10 -96h-98zM887 2013h100l-10 -98h-96zM743 1866h99 l-8 -101h-97z" />
<glyph unicode="&#xce;" d="M1010 1581h98l-10 -98h-97zM862 1581h96l-6 -98h-98zM715 1581h96l-6 -98h-100zM563 1581h101l-7 -98h-100zM702 1432h99l-10 -99h-97zM416 1581h102l-10 -98h-98zM688 1284h98l-8 -98h-96zM678 1135h96l-8 -99h-98zM664 987h100l-12 -100h-99zM649 840h99l-9 -101h-96z M639 692h96l-10 -98h-96zM625 543h98l-8 -99h-99zM612 395h99l-11 -100h-98zM881 96h98l-8 -96h-99zM598 246h98l-10 -99h-96zM733 96h96l-6 -96h-100zM586 96h96l-6 -96h-98zM434 96h103l-11 -96h-98zM289 96h100l-10 -96h-98zM756 2013h100l-10 -98h-96zM866 1866h99 l-9 -101h-100zM612 1866h97l-7 -101h-96z" />
<glyph unicode="&#xcf;" d="M1010 1581h98l-10 -98h-97zM862 1581h96l-6 -98h-98zM715 1581h96l-6 -98h-100zM563 1581h101l-7 -98h-100zM702 1432h99l-10 -99h-97zM416 1581h102l-10 -98h-98zM688 1284h98l-8 -98h-96zM678 1135h96l-8 -99h-98zM664 987h100l-12 -100h-99zM649 840h99l-9 -101h-96z M639 692h96l-10 -98h-96zM625 543h98l-8 -99h-99zM612 395h99l-11 -100h-98zM881 96h98l-8 -96h-99zM598 246h98l-10 -99h-96zM733 96h96l-6 -96h-100zM586 96h96l-6 -96h-98zM434 96h103l-11 -96h-98zM289 96h100l-10 -96h-98zM590 2023h98l-8 -100h-98zM889 2023h98 l-8 -100h-96z" />
<glyph unicode="&#xd0;" d="M940 1581h98l-8 -98h-98zM1077 1432h101l-11 -99h-98zM793 1581h98l-8 -98h-97zM1063 1284h100l-8 -98h-98zM645 1581h100l-10 -98h-96zM1053 1135h98l-8 -99h-101zM498 1581h98l-8 -98h-101zM633 1432h98l-8 -99h-98zM1038 987h103l-13 -100h-100zM348 1581h101l-11 -98 h-98zM623 1284h96l-8 -98h-99zM608 1135h97l-7 -99h-96zM1012 692h100l-10 -98h-98zM596 987h98l-10 -100h-98zM999 543h99l-6 -99h-101zM987 395h100l-10 -100h-102zM569 692h97l-7 -98h-100zM973 246h100l-10 -99h-98zM557 543h96l-8 -99h-96zM543 395h100l-12 -100h-96z M811 96h100l-10 -96h-96zM530 246h97l-6 -99h-101zM664 96h100l-10 -96h-97zM518 96h96l-8 -96h-98zM367 96h100l-8 -96h-101zM219 96h100l-10 -96h-98zM745 985h97l-6 -100h-101zM446 985h103l-10 -100h-101zM299 985h100l-8 -100h-100z" />
<glyph unicode="&#xd1;" d="M1143 1432h100l-8 -99h-100zM1130 1284h101l-8 -98h-101zM1118 1135h101l-11 -99h-98zM1106 987h98l-8 -100h-100zM401 1432h101l-6 -99h-103zM1077 692h103l-11 -100h-98zM438 1284h99l-7 -98h-98zM254 1432h98l-8 -99h-98zM477 1135h98l-8 -99h-98zM1065 543h100 l-6 -99h-102zM244 1284h96l-10 -98h-97zM514 987h98l-10 -100h-100zM784 692h97l-9 -100h-98zM1055 395h98l-10 -100h-101zM229 1135h99l-9 -99h-98zM819 543h99l-7 -99h-102zM1038 246h103l-11 -99h-100zM856 395h98l-8 -100h-100zM217 987h98l-10 -100h-100zM891 246h98 l-8 -99h-98zM190 692h97l-6 -100h-99zM178 543h96l-8 -99h-98zM164 395h100l-12 -100h-96zM150 246h98l-8 -99h-99zM725 2013h100l-10 -98h-96zM836 1866h98l-8 -101h-101zM582 1866h96l-6 -101h-97zM979 2013h100l-10 -98h-96z" />
<glyph unicode="&#xd2;" d="M1008 1581h98l-8 -98h-99zM1143 1432h100l-8 -99h-100zM860 1581h96l-6 -98h-100zM1130 1284h101l-8 -98h-101zM713 1581h96l-6 -98h-101zM1118 1135h101l-11 -99h-98zM561 1581h101l-9 -98h-98zM1106 987h98l-8 -100h-100zM414 1581h102l-10 -98h-98zM1077 692h103 l-11 -98h-98zM254 1432h98l-8 -99h-98zM1065 543h100l-6 -99h-102zM244 1284h96l-10 -98h-97zM1055 395h98l-10 -100h-101zM229 1135h99l-9 -99h-98zM1038 246h103l-11 -99h-100zM217 987h98l-10 -100h-100zM879 96h96l-6 -96h-101zM190 692h97l-6 -98h-99zM731 96h96 l-6 -96h-98zM178 543h96l-8 -99h-98zM582 96h100l-8 -96h-99zM164 395h100l-12 -100h-96zM432 96h103l-11 -96h-98zM150 246h98l-8 -99h-99zM287 96h100l-10 -96h-101zM629 2013h100l-10 -98h-96zM739 1866h99l-9 -101h-100z" />
<glyph unicode="&#xd3;" d="M1008 1581h98l-8 -98h-99zM1143 1432h100l-8 -99h-100zM860 1581h96l-6 -98h-100zM1130 1284h101l-8 -98h-101zM713 1581h96l-6 -98h-101zM1118 1135h101l-11 -99h-98zM561 1581h101l-9 -98h-98zM1106 987h98l-8 -100h-100zM414 1581h102l-10 -98h-98zM1077 692h103 l-11 -98h-98zM254 1432h98l-8 -99h-98zM1065 543h100l-6 -99h-102zM244 1284h96l-10 -98h-97zM1055 395h98l-10 -100h-101zM229 1135h99l-9 -99h-98zM1038 246h103l-11 -99h-100zM217 987h98l-10 -100h-100zM879 96h96l-6 -96h-101zM190 692h97l-6 -98h-99zM731 96h96 l-6 -96h-98zM178 543h96l-8 -99h-98zM582 96h100l-8 -96h-99zM164 395h100l-12 -100h-96zM432 96h103l-11 -96h-98zM150 246h98l-8 -99h-99zM287 96h100l-10 -96h-101zM885 2013h100l-10 -98h-96zM741 1866h99l-9 -101h-96z" />
<glyph unicode="&#xd4;" d="M1008 1581h98l-8 -98h-99zM1143 1432h100l-8 -99h-100zM860 1581h96l-6 -98h-100zM1130 1284h101l-8 -98h-101zM713 1581h96l-6 -98h-101zM1118 1135h101l-11 -99h-98zM561 1581h101l-9 -98h-98zM1106 987h98l-8 -100h-100zM414 1581h102l-10 -98h-98zM1077 692h103 l-11 -98h-98zM254 1432h98l-8 -99h-98zM1065 543h100l-6 -99h-102zM244 1284h96l-10 -98h-97zM1055 395h98l-10 -100h-101zM229 1135h99l-9 -99h-98zM1038 246h103l-11 -99h-100zM217 987h98l-10 -100h-100zM879 96h96l-6 -96h-101zM190 692h97l-6 -98h-99zM731 96h96 l-6 -96h-98zM178 543h96l-8 -99h-98zM582 96h100l-8 -96h-99zM164 395h100l-12 -100h-96zM432 96h103l-11 -96h-98zM150 246h98l-8 -99h-99zM287 96h100l-10 -96h-101zM745 2013h101l-10 -98h-97zM856 1866h98l-8 -101h-100zM602 1866h96l-6 -101h-96z" />
<glyph unicode="&#xd5;" d="M1008 1581h98l-8 -98h-99zM1143 1432h100l-8 -99h-100zM860 1581h96l-6 -98h-100zM1130 1284h101l-8 -98h-101zM713 1581h96l-6 -98h-101zM1118 1135h101l-11 -99h-98zM561 1581h101l-9 -98h-98zM1106 987h98l-8 -100h-100zM414 1581h102l-10 -98h-98zM1077 692h103 l-11 -98h-98zM254 1432h98l-8 -99h-98zM1065 543h100l-6 -99h-102zM244 1284h96l-10 -98h-97zM1055 395h98l-10 -100h-101zM229 1135h99l-9 -99h-98zM1038 246h103l-11 -99h-100zM217 987h98l-10 -100h-100zM879 96h96l-6 -96h-101zM190 692h97l-6 -98h-99zM731 96h96 l-6 -96h-98zM178 543h96l-8 -99h-98zM582 96h100l-8 -96h-99zM164 395h100l-12 -100h-96zM432 96h103l-11 -96h-98zM150 246h98l-8 -99h-99zM287 96h100l-10 -96h-101zM731 2013h100l-10 -98h-96zM842 1866h98l-8 -101h-101zM588 1866h96l-6 -101h-96zM985 2013h100l-10 -98 h-96z" />
<glyph unicode="&#xd6;" d="M1008 1581h98l-8 -98h-99zM1143 1432h100l-8 -99h-100zM860 1581h96l-6 -98h-100zM1130 1284h101l-8 -98h-101zM713 1581h96l-6 -98h-101zM1118 1135h101l-11 -99h-98zM561 1581h101l-9 -98h-98zM1106 987h98l-8 -100h-100zM414 1581h102l-10 -98h-98zM1077 692h103 l-11 -98h-98zM254 1432h98l-8 -99h-98zM1065 543h100l-6 -99h-102zM244 1284h96l-10 -98h-97zM1055 395h98l-10 -100h-101zM229 1135h99l-9 -99h-98zM1038 246h103l-11 -99h-100zM217 987h98l-10 -100h-100zM879 96h96l-6 -96h-101zM190 692h97l-6 -98h-99zM731 96h96 l-6 -96h-98zM178 543h96l-8 -99h-98zM582 96h100l-8 -96h-99zM164 395h100l-12 -100h-96zM432 96h103l-11 -96h-98zM150 246h98l-8 -99h-99zM287 96h100l-10 -96h-101zM604 2023h98l-8 -100h-98zM903 2023h98l-8 -100h-96z" />
<glyph unicode="&#xd8;" d="M1008 1581h98l-8 -98h-99zM1143 1432h100l-8 -99h-100zM860 1581h96l-6 -98h-100zM1130 1284h101l-8 -98h-101zM713 1581h96l-6 -98h-101zM1118 1135h101l-11 -99h-98zM561 1581h101l-9 -98h-98zM1106 987h98l-8 -100h-100zM414 1581h102l-10 -98h-98zM1077 692h103 l-11 -98h-98zM254 1432h98l-8 -99h-98zM1065 543h100l-6 -99h-102zM244 1284h96l-10 -98h-97zM1055 395h98l-10 -100h-101zM229 1135h99l-9 -99h-98zM1038 246h103l-11 -99h-100zM217 987h98l-10 -100h-100zM879 96h96l-6 -96h-101zM190 692h97l-6 -98h-99zM731 96h96 l-6 -96h-98zM178 543h96l-8 -99h-98zM582 96h100l-8 -96h-99zM164 395h100l-12 -100h-96zM432 96h103l-11 -96h-98zM150 246h98l-8 -99h-99zM287 96h100l-10 -96h-101zM997 1432h99l-9 -99h-98zM934 1284h102l-10 -98h-98zM872 1135h101l-8 -99h-101zM811 987h100l-12 -100 h-96zM487 692h101l-8 -100h-101zM428 543h96l-6 -99h-100zM365 395h98l-10 -100h-99zM301 246h98l-6 -99h-102z" />
<glyph unicode="&#xd9;" d="M1143 1434h100l-8 -101h-100zM1130 1286h101l-8 -100h-101zM1118 1137h101l-11 -99h-98zM1106 989h98l-8 -98h-100zM1077 692h103l-11 -98h-98zM254 1434h98l-8 -101h-98zM1065 543h100l-6 -99h-102zM244 1286h96l-10 -100h-97zM1055 395h98l-10 -100h-101zM229 1137h99 l-9 -99h-98zM1038 248h103l-11 -101h-100zM217 989h98l-10 -98h-100zM879 100h96l-6 -100h-101zM190 692h97l-6 -98h-99zM731 100h96l-6 -100h-98zM178 543h96l-8 -99h-98zM582 100h100l-8 -100h-99zM164 395h100l-12 -100h-96zM432 100h103l-11 -100h-98zM150 248h98 l-8 -101h-99zM287 100h100l-10 -100h-101zM649 2013h101l-11 -98h-96zM760 1866h98l-8 -101h-100z" />
<glyph unicode="&#xda;" d="M1143 1434h100l-8 -101h-100zM1130 1286h101l-8 -100h-101zM1118 1137h101l-11 -99h-98zM1106 989h98l-8 -98h-100zM1077 692h103l-11 -98h-98zM254 1434h98l-8 -101h-98zM1065 543h100l-6 -99h-102zM244 1286h96l-10 -100h-97zM1055 395h98l-10 -100h-101zM229 1137h99 l-9 -99h-98zM1038 248h103l-11 -101h-100zM217 989h98l-10 -98h-100zM879 100h96l-6 -100h-101zM190 692h97l-6 -98h-99zM731 100h96l-6 -100h-98zM178 543h96l-8 -99h-98zM582 100h100l-8 -100h-99zM164 395h100l-12 -100h-96zM432 100h103l-11 -100h-98zM150 248h98 l-8 -101h-99zM287 100h100l-10 -100h-101zM885 2013h100l-10 -98h-96zM741 1866h99l-9 -101h-96z" />
<glyph unicode="&#xdb;" d="M1143 1434h100l-8 -101h-100zM1130 1286h101l-8 -100h-101zM1118 1137h101l-11 -99h-98zM1106 989h98l-8 -98h-100zM1077 692h103l-11 -98h-98zM254 1434h98l-8 -101h-98zM1065 543h100l-6 -99h-102zM244 1286h96l-10 -100h-97zM1055 395h98l-10 -100h-101zM229 1137h99 l-9 -99h-98zM1038 248h103l-11 -101h-100zM217 989h98l-10 -98h-100zM879 100h96l-6 -100h-101zM190 692h97l-6 -98h-99zM731 100h96l-6 -100h-98zM178 543h96l-8 -99h-98zM582 100h100l-8 -100h-99zM164 395h100l-12 -100h-96zM432 100h103l-11 -100h-98zM150 248h98 l-8 -101h-99zM287 100h100l-10 -100h-101zM739 2013h101l-11 -98h-96zM850 1866h98l-8 -101h-100zM596 1866h96l-6 -101h-96z" />
<glyph unicode="&#xdc;" d="M1143 1434h100l-8 -101h-100zM1130 1286h101l-8 -100h-101zM1118 1137h101l-11 -99h-98zM1106 989h98l-8 -98h-100zM1077 692h103l-11 -98h-98zM254 1434h98l-8 -101h-98zM1065 543h100l-6 -99h-102zM244 1286h96l-10 -100h-97zM1055 395h98l-10 -100h-101zM229 1137h99 l-9 -99h-98zM1038 248h103l-11 -101h-100zM217 989h98l-10 -98h-100zM879 100h96l-6 -100h-101zM190 692h97l-6 -98h-99zM731 100h96l-6 -100h-98zM178 543h96l-8 -99h-98zM582 100h100l-8 -100h-99zM164 395h100l-12 -100h-96zM432 100h103l-11 -100h-98zM150 248h98 l-8 -101h-99zM287 100h100l-10 -100h-101zM604 2023h98l-8 -100h-98zM903 2023h98l-8 -100h-96z" />
<glyph unicode="&#xdd;" d="M1112 1432h100l-10 -101h-100zM1098 1284h102l-10 -100h-98zM1087 1135h99l-6 -99h-103zM1075 987h99l-11 -100h-100zM911 838h99l-9 -99h-98zM1047 688h100l-6 -96h-103zM225 1432h97l-11 -101h-96zM766 838h96l-8 -99h-98zM1036 541h99l-9 -99h-100zM211 1284h98 l-8 -100h-98zM616 838h99l-10 -99h-97zM1022 393h100l-10 -100h-100zM199 1135h96l-6 -99h-99zM467 838h100l-8 -99h-100zM1008 246h100l-10 -101h-99zM184 987h101l-13 -100h-96zM319 838h99l-6 -99h-103zM848 96h98l-10 -98h-96zM700 96h97l-9 -98h-96zM553 96h96l-6 -98 h-100zM401 96h101l-6 -98h-103zM254 96h100l-8 -98h-98zM868 2013h101l-11 -98h-96zM725 1866h98l-8 -101h-96z" />
<glyph unicode="&#xde;" d="M991 1284h99l-9 -98h-98zM1126 1135h101l-8 -99h-101zM844 1284h96l-6 -98h-98zM1114 987h100l-8 -96h-100zM696 1284h97l-7 -98h-100zM1102 840h100l-8 -101h-100zM545 1284h100l-6 -98h-100zM1090 692h98l-8 -100h-101zM397 1284h103l-11 -98h-98zM928 541h96l-6 -97 h-100zM254 1432h98l-8 -101h-98zM778 541h99l-9 -97h-98zM244 1284h96l-10 -98h-97zM631 541h98l-8 -97h-96zM229 1135h99l-9 -99h-98zM481 541h101l-9 -97h-100zM217 987h98l-10 -100h-100zM334 541h100l-8 -97h-100zM190 688h97l-6 -96h-99zM178 541h96l-8 -99h-98z M164 395h100l-12 -102h-96zM150 246h98l-8 -101h-99z" />
<glyph unicode="&#xdf;" horiz-adv-x="2775" d="M1008 1581h98l-8 -98h-99zM860 1581h96l-6 -98h-100zM713 1581h96l-6 -98h-101zM561 1581h101l-9 -98h-98zM414 1581h102l-10 -98h-98zM944 840h96l-6 -101h-100zM1077 692h103l-11 -98h-98zM254 1432h98l-8 -99h-98zM795 840h98l-8 -101h-99zM1065 543h100l-6 -99h-102z M244 1284h96l-10 -98h-97zM647 840h98l-8 -101h-96zM1055 395h98l-10 -100h-101zM229 1135h99l-9 -99h-98zM498 840h100l-8 -101h-101zM1038 246h103l-11 -99h-100zM217 987h98l-10 -100h-100zM348 840h103l-9 -101h-100zM879 96h96l-6 -96h-101zM731 96h96l-6 -96h-98z M582 96h100l-8 -96h-99zM432 96h103l-11 -96h-98zM287 96h100l-10 -96h-101zM2394 1581h98l-8 -98h-98zM2247 1581h96l-6 -98h-101zM2099 1581h96l-6 -98h-100zM1948 1581h100l-8 -98h-98zM1800 1581h103l-11 -98h-98zM2331 840h96l-6 -101h-101zM2464 692h102l-10 -98h-98z M1640 1432h99l-8 -99h-99zM2181 840h98l-8 -101h-98zM2451 543h101l-6 -99h-103zM1630 1284h96l-10 -98h-96zM2034 840h98l-8 -101h-96zM2441 395h99l-11 -100h-100zM1616 1135h98l-8 -99h-98zM1884 840h101l-9 -101h-100zM2425 246h102l-10 -99h-100zM1604 987h98l-10 -100 h-101zM1735 840h102l-8 -101h-100zM2265 96h96l-6 -96h-100zM2118 96h96l-6 -96h-99zM1968 96h100l-8 -96h-98zM1819 96h102l-10 -96h-99zM1673 96h101l-11 -96h-100z" />
<glyph unicode="&#xe0;" d="M1008 1581h98l-8 -102h-99zM1143 1432h100l-8 -101h-100zM860 1581h96l-6 -102h-100zM1130 1284h101l-8 -98h-101zM713 1581h96l-6 -102h-101zM1118 1135h101l-11 -99h-98zM561 1581h101l-9 -102h-98zM1106 987h98l-8 -100h-100zM414 1581h102l-10 -102h-98zM944 838h96 l-6 -99h-100zM1077 688h103l-11 -96h-98zM254 1432h98l-8 -101h-98zM795 838h98l-8 -99h-99zM1065 541h100l-6 -99h-102zM244 1284h96l-10 -98h-97zM647 838h98l-8 -99h-96zM1055 395h98l-10 -102h-101zM229 1135h99l-9 -99h-98zM498 838h100l-8 -99h-101zM1038 246h103 l-11 -101h-100zM217 987h98l-10 -100h-100zM348 838h103l-9 -99h-100zM190 688h97l-6 -96h-99zM178 541h96l-8 -99h-98zM164 395h100l-12 -102h-96zM150 246h98l-8 -101h-99zM631 2013h100l-10 -98h-96zM741 1866h99l-9 -101h-100z" />
<glyph unicode="&#xe1;" d="M1008 1581h98l-8 -102h-99zM1143 1432h100l-8 -101h-100zM860 1581h96l-6 -102h-100zM1130 1284h101l-8 -98h-101zM713 1581h96l-6 -102h-101zM1118 1135h101l-11 -99h-98zM561 1581h101l-9 -102h-98zM1106 987h98l-8 -100h-100zM414 1581h102l-10 -102h-98zM944 838h96 l-6 -99h-100zM1077 688h103l-11 -96h-98zM254 1432h98l-8 -101h-98zM795 838h98l-8 -99h-99zM1065 541h100l-6 -99h-102zM244 1284h96l-10 -98h-97zM647 838h98l-8 -99h-96zM1055 395h98l-10 -102h-101zM229 1135h99l-9 -99h-98zM498 838h100l-8 -99h-101zM1038 246h103 l-11 -101h-100zM217 987h98l-10 -100h-100zM348 838h103l-9 -99h-100zM190 688h97l-6 -96h-99zM178 541h96l-8 -99h-98zM164 395h100l-12 -102h-96zM150 246h98l-8 -101h-99zM881 2013h100l-10 -98h-97zM737 1866h99l-9 -101h-96z" />
<glyph unicode="&#xe2;" d="M1008 1581h98l-8 -102h-99zM1143 1432h100l-8 -101h-100zM860 1581h96l-6 -102h-100zM1130 1284h101l-8 -98h-101zM713 1581h96l-6 -102h-101zM1118 1135h101l-11 -99h-98zM561 1581h101l-9 -102h-98zM1106 987h98l-8 -100h-100zM414 1581h102l-10 -102h-98zM944 838h96 l-6 -99h-100zM1077 688h103l-11 -96h-98zM254 1432h98l-8 -101h-98zM795 838h98l-8 -99h-99zM1065 541h100l-6 -99h-102zM244 1284h96l-10 -98h-97zM647 838h98l-8 -99h-96zM1055 395h98l-10 -102h-101zM229 1135h99l-9 -99h-98zM498 838h100l-8 -99h-101zM1038 246h103 l-11 -101h-100zM217 987h98l-10 -100h-100zM348 838h103l-9 -99h-100zM190 688h97l-6 -96h-99zM178 541h96l-8 -99h-98zM164 395h100l-12 -102h-96zM150 246h98l-8 -101h-99zM745 2013h101l-10 -98h-97zM856 1866h98l-8 -101h-100zM602 1866h96l-6 -101h-96z" />
<glyph unicode="&#xe3;" d="M1008 1581h98l-8 -102h-99zM1143 1432h100l-8 -101h-100zM860 1581h96l-6 -102h-100zM1130 1284h101l-8 -98h-101zM713 1581h96l-6 -102h-101zM1118 1135h101l-11 -99h-98zM561 1581h101l-9 -102h-98zM1106 987h98l-8 -100h-100zM414 1581h102l-10 -102h-98zM944 838h96 l-6 -99h-100zM1077 688h103l-11 -96h-98zM254 1432h98l-8 -101h-98zM795 838h98l-8 -99h-99zM1065 541h100l-6 -99h-102zM244 1284h96l-10 -98h-97zM647 838h98l-8 -99h-96zM1055 395h98l-10 -102h-101zM229 1135h99l-9 -99h-98zM498 838h100l-8 -99h-101zM1038 246h103 l-11 -101h-100zM217 987h98l-10 -100h-100zM348 838h103l-9 -99h-100zM190 688h97l-6 -96h-99zM178 541h96l-8 -99h-98zM164 395h100l-12 -102h-96zM150 246h98l-8 -101h-99zM731 2013h100l-10 -98h-96zM842 1866h98l-8 -101h-101zM588 1866h96l-6 -101h-96zM985 2013h100 l-10 -98h-96z" />
<glyph unicode="&#xe4;" d="M1008 1581h98l-8 -102h-99zM1143 1432h100l-8 -101h-100zM860 1581h96l-6 -102h-100zM1130 1284h101l-8 -98h-101zM713 1581h96l-6 -102h-101zM1118 1135h101l-11 -99h-98zM561 1581h101l-9 -102h-98zM1106 987h98l-8 -100h-100zM414 1581h102l-10 -102h-98zM944 838h96 l-6 -99h-100zM1077 688h103l-11 -96h-98zM254 1432h98l-8 -101h-98zM795 838h98l-8 -99h-99zM1065 541h100l-6 -99h-102zM244 1284h96l-10 -98h-97zM647 838h98l-8 -99h-96zM1055 395h98l-10 -102h-101zM229 1135h99l-9 -99h-98zM498 838h100l-8 -99h-101zM1038 246h103 l-11 -101h-100zM217 987h98l-10 -100h-100zM348 838h103l-9 -99h-100zM190 688h97l-6 -96h-99zM178 541h96l-8 -99h-98zM164 395h100l-12 -102h-96zM150 246h98l-8 -101h-99zM594 2023h98l-8 -100h-98zM893 2023h98l-8 -100h-96z" />
<glyph unicode="&#xe5;" d="M1008 1581h98l-8 -102h-99zM1143 1432h100l-8 -101h-100zM860 1581h96l-6 -102h-100zM1130 1284h101l-8 -98h-101zM713 1581h96l-6 -102h-101zM1118 1135h101l-11 -99h-98zM561 1581h101l-9 -102h-98zM1106 987h98l-8 -100h-100zM414 1581h102l-10 -102h-98zM944 838h96 l-6 -99h-100zM1077 688h103l-11 -96h-98zM254 1432h98l-8 -101h-98zM795 838h98l-8 -99h-99zM1065 541h100l-6 -99h-102zM244 1284h96l-10 -98h-97zM647 838h98l-8 -99h-96zM1055 395h98l-10 -102h-101zM229 1135h99l-9 -99h-98zM498 838h100l-8 -99h-101zM1038 246h103 l-11 -101h-100zM217 987h98l-10 -100h-100zM348 838h103l-9 -99h-100zM190 688h97l-6 -96h-99zM178 541h96l-8 -99h-98zM164 395h100l-12 -102h-96zM150 246h98l-8 -101h-99zM780 2159h99l-9 -97h-98zM891 2013h98l-10 -98h-100zM637 2013h98l-10 -98h-96zM735 1868h99 l-9 -96h-98z" />
<glyph unicode="&#xe6;" d="M1182 1589h96l-8 -100h-99zM1030 1589h100l-6 -100h-102zM883 1589h100l-8 -100h-101zM1116 846h98l-8 -98h-98zM967 846h98l-6 -98h-103zM819 846h99l-7 -98h-100zM1053 104h96l-6 -98h-101zM901 104h100l-8 -98h-98zM754 104h100l-8 -98h-98zM588 1591h96l-6 -102h-100 zM721 1440h102l-10 -99h-98zM711 1292h98l-6 -96h-103zM698 1145h99l-9 -101h-100zM436 1591h101l-7 -102h-100zM684 997h100l-10 -100h-98zM289 1591h102l-10 -102h-98zM522 846h99l-9 -96h-98zM657 698h101l-8 -96h-101zM129 1440h98l-8 -99h-98zM645 551h100l-8 -100 h-102zM119 1292h96l-10 -96h-96zM633 406h100l-12 -103h-98zM104 1145h99l-8 -101h-99zM373 846h100l-8 -96h-100zM616 254h103l-8 -98h-101zM92 997h98l-10 -100h-98zM225 846h101l-9 -96h-100zM66 698h96l-6 -96h-99zM53 551h97l-9 -100h-98zM39 406h100l-12 -103h-96z M25 254h98l-8 -98h-99z" />
<glyph unicode="&#xe7;" d="M1077 1581h97l-9 -98h-96zM930 1581h96l-8 -98h-98zM782 1581h97l-11 -98h-96zM631 1581h100l-8 -98h-100zM483 1581h99l-7 -98h-102zM324 1432h96l-8 -99h-97zM309 1284h101l-11 -98h-96zM299 1135h96l-6 -99h-100zM287 987h96l-10 -100h-99zM948 96h96l-8 -96h-98z M258 692h98l-8 -98h-98zM801 96h96l-6 -96h-100zM246 543h98l-8 -99h-98zM651 96h99l-9 -96h-98zM233 395h97l-8 -100h-97zM502 96h100l-8 -96h-98zM219 246h98l-10 -99h-96zM354 96h99l-7 -96h-100zM623 -92h96l-6 -101h-101zM489 -199h99l-10 -100h-97z" />
<glyph unicode="&#xe8;" d="M1077 1581h97l-9 -98h-96zM930 1581h96l-8 -98h-98zM782 1581h97l-11 -98h-96zM631 1581h100l-8 -98h-100zM483 1581h99l-7 -98h-102zM1012 840h98l-10 -101h-96zM324 1432h96l-8 -99h-97zM864 840h99l-11 -101h-96zM309 1284h101l-11 -98h-96zM717 840h96l-6 -101h-100z M299 1135h96l-6 -99h-100zM567 840h99l-7 -101h-102zM287 987h96l-10 -100h-99zM418 840h100l-8 -101h-98zM948 96h96l-8 -96h-98zM258 692h98l-8 -98h-98zM801 96h96l-6 -96h-100zM246 543h98l-8 -99h-98zM651 96h99l-9 -96h-98zM233 395h97l-8 -100h-97zM502 96h100 l-8 -96h-98zM219 246h98l-10 -99h-96zM354 96h99l-7 -96h-100zM698 2013h101l-11 -98h-96zM809 1866h98l-8 -101h-100z" />
<glyph unicode="&#xe9;" d="M1077 1581h97l-9 -98h-96zM930 1581h96l-8 -98h-98zM782 1581h97l-11 -98h-96zM631 1581h100l-8 -98h-100zM483 1581h99l-7 -98h-102zM1012 840h98l-10 -101h-96zM324 1432h96l-8 -99h-97zM864 840h99l-11 -101h-96zM309 1284h101l-11 -98h-96zM717 840h96l-6 -101h-100z M299 1135h96l-6 -99h-100zM567 840h99l-7 -101h-102zM287 987h96l-10 -100h-99zM418 840h100l-8 -101h-98zM948 96h96l-8 -96h-98zM258 692h98l-8 -98h-98zM801 96h96l-6 -96h-100zM246 543h98l-8 -99h-98zM651 96h99l-9 -96h-98zM233 395h97l-8 -100h-97zM502 96h100 l-8 -96h-98zM219 246h98l-10 -99h-96zM354 96h99l-7 -96h-100zM967 2013h100l-10 -98h-96zM823 1866h99l-9 -101h-96z" />
<glyph unicode="&#xea;" d="M1077 1581h97l-9 -98h-96zM930 1581h96l-8 -98h-98zM782 1581h97l-11 -98h-96zM631 1581h100l-8 -98h-100zM483 1581h99l-7 -98h-102zM1012 840h98l-10 -101h-96zM324 1432h96l-8 -99h-97zM864 840h99l-11 -101h-96zM309 1284h101l-11 -98h-96zM717 840h96l-6 -101h-100z M299 1135h96l-6 -99h-100zM567 840h99l-7 -101h-102zM287 987h96l-10 -100h-99zM418 840h100l-8 -101h-98zM948 96h96l-8 -96h-98zM258 692h98l-8 -98h-98zM801 96h96l-6 -96h-100zM246 543h98l-8 -99h-98zM651 96h99l-9 -96h-98zM233 395h97l-8 -100h-97zM502 96h100 l-8 -96h-98zM219 246h98l-10 -99h-96zM354 96h99l-7 -96h-100zM809 2013h100l-10 -98h-96zM920 1866h98l-8 -101h-101zM666 1866h96l-6 -101h-97z" />
<glyph unicode="&#xeb;" d="M1077 1581h97l-9 -98h-96zM930 1581h96l-8 -98h-98zM782 1581h97l-11 -98h-96zM631 1581h100l-8 -98h-100zM483 1581h99l-7 -98h-102zM1012 840h98l-10 -101h-96zM324 1432h96l-8 -99h-97zM864 840h99l-11 -101h-96zM309 1284h101l-11 -98h-96zM717 840h96l-6 -101h-100z M299 1135h96l-6 -99h-100zM567 840h99l-7 -101h-102zM287 987h96l-10 -100h-99zM418 840h100l-8 -101h-98zM948 96h96l-8 -96h-98zM258 692h98l-8 -98h-98zM801 96h96l-6 -96h-100zM246 543h98l-8 -99h-98zM651 96h99l-9 -96h-98zM233 395h97l-8 -100h-97zM502 96h100 l-8 -96h-98zM219 246h98l-10 -99h-96zM354 96h99l-7 -96h-100zM670 2023h98l-8 -100h-98zM969 2023h98l-8 -100h-96z" />
<glyph unicode="&#xec;" d="M1010 1581h98l-10 -98h-97zM862 1581h96l-6 -98h-98zM715 1581h96l-6 -98h-100zM563 1581h101l-7 -98h-100zM702 1432h99l-10 -99h-97zM416 1581h102l-10 -98h-98zM688 1284h98l-8 -98h-96zM678 1135h96l-8 -99h-98zM664 987h100l-12 -100h-99zM649 840h99l-9 -101h-96z M639 692h96l-10 -98h-96zM625 543h98l-8 -99h-99zM612 395h99l-11 -100h-98zM881 96h98l-8 -96h-99zM598 246h98l-10 -99h-96zM733 96h96l-6 -96h-100zM586 96h96l-6 -96h-98zM434 96h103l-11 -96h-98zM289 96h100l-10 -96h-98zM629 2013h100l-10 -98h-96zM739 1866h99 l-9 -101h-100z" />
<glyph unicode="&#xed;" d="M1010 1581h98l-10 -98h-97zM862 1581h96l-6 -98h-98zM715 1581h96l-6 -98h-100zM563 1581h101l-7 -98h-100zM702 1432h99l-10 -99h-97zM416 1581h102l-10 -98h-98zM688 1284h98l-8 -98h-96zM678 1135h96l-8 -99h-98zM664 987h100l-12 -100h-99zM649 840h99l-9 -101h-96z M639 692h96l-10 -98h-96zM625 543h98l-8 -99h-99zM612 395h99l-11 -100h-98zM881 96h98l-8 -96h-99zM598 246h98l-10 -99h-96zM733 96h96l-6 -96h-100zM586 96h96l-6 -96h-98zM434 96h103l-11 -96h-98zM289 96h100l-10 -96h-98zM887 2013h100l-10 -98h-96zM743 1866h99 l-8 -101h-97z" />
<glyph unicode="&#xee;" d="M1010 1581h98l-10 -98h-97zM862 1581h96l-6 -98h-98zM715 1581h96l-6 -98h-100zM563 1581h101l-7 -98h-100zM702 1432h99l-10 -99h-97zM416 1581h102l-10 -98h-98zM688 1284h98l-8 -98h-96zM678 1135h96l-8 -99h-98zM664 987h100l-12 -100h-99zM649 840h99l-9 -101h-96z M639 692h96l-10 -98h-96zM625 543h98l-8 -99h-99zM612 395h99l-11 -100h-98zM881 96h98l-8 -96h-99zM598 246h98l-10 -99h-96zM733 96h96l-6 -96h-100zM586 96h96l-6 -96h-98zM434 96h103l-11 -96h-98zM289 96h100l-10 -96h-98zM756 2013h100l-10 -98h-96zM866 1866h99 l-9 -101h-100zM612 1866h97l-7 -101h-96z" />
<glyph unicode="&#xef;" d="M1010 1581h98l-10 -98h-97zM862 1581h96l-6 -98h-98zM715 1581h96l-6 -98h-100zM563 1581h101l-7 -98h-100zM702 1432h99l-10 -99h-97zM416 1581h102l-10 -98h-98zM688 1284h98l-8 -98h-96zM678 1135h96l-8 -99h-98zM664 987h100l-12 -100h-99zM649 840h99l-9 -101h-96z M639 692h96l-10 -98h-96zM625 543h98l-8 -99h-99zM612 395h99l-11 -100h-98zM881 96h98l-8 -96h-99zM598 246h98l-10 -99h-96zM733 96h96l-6 -96h-100zM586 96h96l-6 -96h-98zM434 96h103l-11 -96h-98zM289 96h100l-10 -96h-98zM590 2023h98l-8 -100h-98zM889 2023h98 l-8 -100h-96z" />
<glyph unicode="&#xf0;" d="M940 1581h98l-8 -98h-98zM1077 1432h101l-11 -99h-98zM793 1581h98l-8 -98h-97zM1063 1284h100l-8 -98h-98zM645 1581h100l-10 -98h-96zM1053 1135h98l-8 -99h-101zM498 1581h98l-8 -98h-101zM633 1432h98l-8 -99h-98zM1038 987h103l-13 -100h-100zM348 1581h101l-11 -98 h-98zM623 1284h96l-8 -98h-99zM608 1135h97l-7 -99h-96zM1012 692h100l-10 -98h-98zM596 987h98l-10 -100h-98zM999 543h99l-6 -99h-101zM987 395h100l-10 -100h-102zM569 692h97l-7 -98h-100zM973 246h100l-10 -99h-98zM557 543h96l-8 -99h-96zM543 395h100l-12 -100h-96z M811 96h100l-10 -96h-96zM530 246h97l-6 -99h-101zM664 96h100l-10 -96h-97zM518 96h96l-8 -96h-98zM367 96h100l-8 -96h-101zM219 96h100l-10 -96h-98zM745 985h97l-6 -100h-101zM446 985h103l-10 -100h-101zM299 985h100l-8 -100h-100z" />
<glyph unicode="&#xf1;" d="M1143 1432h100l-8 -99h-100zM1130 1284h101l-8 -98h-101zM1118 1135h101l-11 -99h-98zM1106 987h98l-8 -100h-100zM401 1432h101l-6 -99h-103zM1077 692h103l-11 -100h-98zM438 1284h99l-7 -98h-98zM254 1432h98l-8 -99h-98zM477 1135h98l-8 -99h-98zM1065 543h100 l-6 -99h-102zM244 1284h96l-10 -98h-97zM514 987h98l-10 -100h-100zM784 692h97l-9 -100h-98zM1055 395h98l-10 -100h-101zM229 1135h99l-9 -99h-98zM819 543h99l-7 -99h-102zM1038 246h103l-11 -99h-100zM856 395h98l-8 -100h-100zM217 987h98l-10 -100h-100zM891 246h98 l-8 -99h-98zM190 692h97l-6 -100h-99zM178 543h96l-8 -99h-98zM164 395h100l-12 -100h-96zM150 246h98l-8 -99h-99zM725 2013h100l-10 -98h-96zM836 1866h98l-8 -101h-101zM582 1866h96l-6 -101h-97zM979 2013h100l-10 -98h-96z" />
<glyph unicode="&#xf2;" d="M1008 1581h98l-8 -98h-99zM1143 1432h100l-8 -99h-100zM860 1581h96l-6 -98h-100zM1130 1284h101l-8 -98h-101zM713 1581h96l-6 -98h-101zM1118 1135h101l-11 -99h-98zM561 1581h101l-9 -98h-98zM1106 987h98l-8 -100h-100zM414 1581h102l-10 -98h-98zM1077 692h103 l-11 -98h-98zM254 1432h98l-8 -99h-98zM1065 543h100l-6 -99h-102zM244 1284h96l-10 -98h-97zM1055 395h98l-10 -100h-101zM229 1135h99l-9 -99h-98zM1038 246h103l-11 -99h-100zM217 987h98l-10 -100h-100zM879 96h96l-6 -96h-101zM190 692h97l-6 -98h-99zM731 96h96 l-6 -96h-98zM178 543h96l-8 -99h-98zM582 96h100l-8 -96h-99zM164 395h100l-12 -100h-96zM432 96h103l-11 -96h-98zM150 246h98l-8 -99h-99zM287 96h100l-10 -96h-101zM629 2013h100l-10 -98h-96zM739 1866h99l-9 -101h-100z" />
<glyph unicode="&#xf3;" d="M1008 1581h98l-8 -98h-99zM1143 1432h100l-8 -99h-100zM860 1581h96l-6 -98h-100zM1130 1284h101l-8 -98h-101zM713 1581h96l-6 -98h-101zM1118 1135h101l-11 -99h-98zM561 1581h101l-9 -98h-98zM1106 987h98l-8 -100h-100zM414 1581h102l-10 -98h-98zM1077 692h103 l-11 -98h-98zM254 1432h98l-8 -99h-98zM1065 543h100l-6 -99h-102zM244 1284h96l-10 -98h-97zM1055 395h98l-10 -100h-101zM229 1135h99l-9 -99h-98zM1038 246h103l-11 -99h-100zM217 987h98l-10 -100h-100zM879 96h96l-6 -96h-101zM190 692h97l-6 -98h-99zM731 96h96 l-6 -96h-98zM178 543h96l-8 -99h-98zM582 96h100l-8 -96h-99zM164 395h100l-12 -100h-96zM432 96h103l-11 -96h-98zM150 246h98l-8 -99h-99zM287 96h100l-10 -96h-101zM885 2013h100l-10 -98h-96zM741 1866h99l-9 -101h-96z" />
<glyph unicode="&#xf4;" d="M1008 1581h98l-8 -98h-99zM1143 1432h100l-8 -99h-100zM860 1581h96l-6 -98h-100zM1130 1284h101l-8 -98h-101zM713 1581h96l-6 -98h-101zM1118 1135h101l-11 -99h-98zM561 1581h101l-9 -98h-98zM1106 987h98l-8 -100h-100zM414 1581h102l-10 -98h-98zM1077 692h103 l-11 -98h-98zM254 1432h98l-8 -99h-98zM1065 543h100l-6 -99h-102zM244 1284h96l-10 -98h-97zM1055 395h98l-10 -100h-101zM229 1135h99l-9 -99h-98zM1038 246h103l-11 -99h-100zM217 987h98l-10 -100h-100zM879 96h96l-6 -96h-101zM190 692h97l-6 -98h-99zM731 96h96 l-6 -96h-98zM178 543h96l-8 -99h-98zM582 96h100l-8 -96h-99zM164 395h100l-12 -100h-96zM432 96h103l-11 -96h-98zM150 246h98l-8 -99h-99zM287 96h100l-10 -96h-101zM745 2013h101l-10 -98h-97zM856 1866h98l-8 -101h-100zM602 1866h96l-6 -101h-96z" />
<glyph unicode="&#xf5;" d="M1008 1581h98l-8 -98h-99zM1143 1432h100l-8 -99h-100zM860 1581h96l-6 -98h-100zM1130 1284h101l-8 -98h-101zM713 1581h96l-6 -98h-101zM1118 1135h101l-11 -99h-98zM561 1581h101l-9 -98h-98zM1106 987h98l-8 -100h-100zM414 1581h102l-10 -98h-98zM1077 692h103 l-11 -98h-98zM254 1432h98l-8 -99h-98zM1065 543h100l-6 -99h-102zM244 1284h96l-10 -98h-97zM1055 395h98l-10 -100h-101zM229 1135h99l-9 -99h-98zM1038 246h103l-11 -99h-100zM217 987h98l-10 -100h-100zM879 96h96l-6 -96h-101zM190 692h97l-6 -98h-99zM731 96h96 l-6 -96h-98zM178 543h96l-8 -99h-98zM582 96h100l-8 -96h-99zM164 395h100l-12 -100h-96zM432 96h103l-11 -96h-98zM150 246h98l-8 -99h-99zM287 96h100l-10 -96h-101zM731 2013h100l-10 -98h-96zM842 1866h98l-8 -101h-101zM588 1866h96l-6 -101h-96zM985 2013h100l-10 -98 h-96z" />
<glyph unicode="&#xf6;" d="M1008 1581h98l-8 -98h-99zM1143 1432h100l-8 -99h-100zM860 1581h96l-6 -98h-100zM1130 1284h101l-8 -98h-101zM713 1581h96l-6 -98h-101zM1118 1135h101l-11 -99h-98zM561 1581h101l-9 -98h-98zM1106 987h98l-8 -100h-100zM414 1581h102l-10 -98h-98zM1077 692h103 l-11 -98h-98zM254 1432h98l-8 -99h-98zM1065 543h100l-6 -99h-102zM244 1284h96l-10 -98h-97zM1055 395h98l-10 -100h-101zM229 1135h99l-9 -99h-98zM1038 246h103l-11 -99h-100zM217 987h98l-10 -100h-100zM879 96h96l-6 -96h-101zM190 692h97l-6 -98h-99zM731 96h96 l-6 -96h-98zM178 543h96l-8 -99h-98zM582 96h100l-8 -96h-99zM164 395h100l-12 -100h-96zM432 96h103l-11 -96h-98zM150 246h98l-8 -99h-99zM287 96h100l-10 -96h-101zM604 2023h98l-8 -100h-98zM903 2023h98l-8 -100h-96z" />
<glyph unicode="&#xf8;" d="M1008 1581h98l-8 -98h-99zM1143 1432h100l-8 -99h-100zM860 1581h96l-6 -98h-100zM1130 1284h101l-8 -98h-101zM713 1581h96l-6 -98h-101zM1118 1135h101l-11 -99h-98zM561 1581h101l-9 -98h-98zM1106 987h98l-8 -100h-100zM414 1581h102l-10 -98h-98zM1077 692h103 l-11 -98h-98zM254 1432h98l-8 -99h-98zM1065 543h100l-6 -99h-102zM244 1284h96l-10 -98h-97zM1055 395h98l-10 -100h-101zM229 1135h99l-9 -99h-98zM1038 246h103l-11 -99h-100zM217 987h98l-10 -100h-100zM879 96h96l-6 -96h-101zM190 692h97l-6 -98h-99zM731 96h96 l-6 -96h-98zM178 543h96l-8 -99h-98zM582 96h100l-8 -96h-99zM164 395h100l-12 -100h-96zM432 96h103l-11 -96h-98zM150 246h98l-8 -99h-99zM287 96h100l-10 -96h-101zM997 1432h99l-9 -99h-98zM934 1284h102l-10 -98h-98zM872 1135h101l-8 -99h-101zM811 987h100l-12 -100 h-96zM487 692h101l-8 -100h-101zM428 543h96l-6 -99h-100zM365 395h98l-10 -100h-99zM301 246h98l-6 -99h-102z" />
<glyph unicode="&#xf9;" d="M1143 1434h100l-8 -101h-100zM1130 1286h101l-8 -100h-101zM1118 1137h101l-11 -99h-98zM1106 989h98l-8 -98h-100zM1077 692h103l-11 -98h-98zM254 1434h98l-8 -101h-98zM1065 543h100l-6 -99h-102zM244 1286h96l-10 -100h-97zM1055 395h98l-10 -100h-101zM229 1137h99 l-9 -99h-98zM1038 248h103l-11 -101h-100zM217 989h98l-10 -98h-100zM879 100h96l-6 -100h-101zM190 692h97l-6 -98h-99zM731 100h96l-6 -100h-98zM178 543h96l-8 -99h-98zM582 100h100l-8 -100h-99zM164 395h100l-12 -100h-96zM432 100h103l-11 -100h-98zM150 248h98 l-8 -101h-99zM287 100h100l-10 -100h-101zM649 2013h101l-11 -98h-96zM760 1866h98l-8 -101h-100z" />
<glyph unicode="&#xfa;" d="M1143 1434h100l-8 -101h-100zM1130 1286h101l-8 -100h-101zM1118 1137h101l-11 -99h-98zM1106 989h98l-8 -98h-100zM1077 692h103l-11 -98h-98zM254 1434h98l-8 -101h-98zM1065 543h100l-6 -99h-102zM244 1286h96l-10 -100h-97zM1055 395h98l-10 -100h-101zM229 1137h99 l-9 -99h-98zM1038 248h103l-11 -101h-100zM217 989h98l-10 -98h-100zM879 100h96l-6 -100h-101zM190 692h97l-6 -98h-99zM731 100h96l-6 -100h-98zM178 543h96l-8 -99h-98zM582 100h100l-8 -100h-99zM164 395h100l-12 -100h-96zM432 100h103l-11 -100h-98zM150 248h98 l-8 -101h-99zM287 100h100l-10 -100h-101zM885 2013h100l-10 -98h-96zM741 1866h99l-9 -101h-96z" />
<glyph unicode="&#xfb;" d="M1143 1434h100l-8 -101h-100zM1130 1286h101l-8 -100h-101zM1118 1137h101l-11 -99h-98zM1106 989h98l-8 -98h-100zM1077 692h103l-11 -98h-98zM254 1434h98l-8 -101h-98zM1065 543h100l-6 -99h-102zM244 1286h96l-10 -100h-97zM1055 395h98l-10 -100h-101zM229 1137h99 l-9 -99h-98zM1038 248h103l-11 -101h-100zM217 989h98l-10 -98h-100zM879 100h96l-6 -100h-101zM190 692h97l-6 -98h-99zM731 100h96l-6 -100h-98zM178 543h96l-8 -99h-98zM582 100h100l-8 -100h-99zM164 395h100l-12 -100h-96zM432 100h103l-11 -100h-98zM150 248h98 l-8 -101h-99zM287 100h100l-10 -100h-101zM739 2013h101l-11 -98h-96zM850 1866h98l-8 -101h-100zM596 1866h96l-6 -101h-96z" />
<glyph unicode="&#xfc;" d="M1143 1434h100l-8 -101h-100zM1130 1286h101l-8 -100h-101zM1118 1137h101l-11 -99h-98zM1106 989h98l-8 -98h-100zM1077 692h103l-11 -98h-98zM254 1434h98l-8 -101h-98zM1065 543h100l-6 -99h-102zM244 1286h96l-10 -100h-97zM1055 395h98l-10 -100h-101zM229 1137h99 l-9 -99h-98zM1038 248h103l-11 -101h-100zM217 989h98l-10 -98h-100zM879 100h96l-6 -100h-101zM190 692h97l-6 -98h-99zM731 100h96l-6 -100h-98zM178 543h96l-8 -99h-98zM582 100h100l-8 -100h-99zM164 395h100l-12 -100h-96zM432 100h103l-11 -100h-98zM150 248h98 l-8 -101h-99zM287 100h100l-10 -100h-101zM604 2023h98l-8 -100h-98zM903 2023h98l-8 -100h-96z" />
<glyph unicode="&#xfd;" d="M1112 1432h100l-10 -101h-100zM1098 1284h102l-10 -100h-98zM1087 1135h99l-6 -99h-103zM1075 987h99l-11 -100h-100zM911 838h99l-9 -99h-98zM1047 688h100l-6 -96h-103zM225 1432h97l-11 -101h-96zM766 838h96l-8 -99h-98zM1036 541h99l-9 -99h-100zM211 1284h98 l-8 -100h-98zM616 838h99l-10 -99h-97zM1022 393h100l-10 -100h-100zM199 1135h96l-6 -99h-99zM467 838h100l-8 -99h-100zM1008 246h100l-10 -101h-99zM184 987h101l-13 -100h-96zM319 838h99l-6 -99h-103zM848 96h98l-10 -98h-96zM700 96h97l-9 -98h-96zM553 96h96l-6 -98 h-100zM401 96h101l-6 -98h-103zM254 96h100l-8 -98h-98zM868 2013h101l-11 -98h-96zM725 1866h98l-8 -101h-96z" />
<glyph unicode="&#xfe;" d="M991 1284h99l-9 -98h-98zM1126 1135h101l-8 -99h-101zM844 1284h96l-6 -98h-98zM1114 987h100l-8 -96h-100zM696 1284h97l-7 -98h-100zM1102 840h100l-8 -101h-100zM545 1284h100l-6 -98h-100zM1090 692h98l-8 -100h-101zM397 1284h103l-11 -98h-98zM928 541h96l-6 -97 h-100zM254 1432h98l-8 -101h-98zM778 541h99l-9 -97h-98zM244 1284h96l-10 -98h-97zM631 541h98l-8 -97h-96zM229 1135h99l-9 -99h-98zM481 541h101l-9 -97h-100zM217 987h98l-10 -100h-100zM334 541h100l-8 -97h-100zM190 688h97l-6 -96h-99zM178 541h96l-8 -99h-98z M164 395h100l-12 -102h-96zM150 246h98l-8 -101h-99z" />
<glyph unicode="&#xff;" d="M1112 1432h100l-10 -101h-100zM1098 1284h102l-10 -100h-98zM1087 1135h99l-6 -99h-103zM1075 987h99l-11 -100h-100zM911 838h99l-9 -99h-98zM1047 688h100l-6 -96h-103zM225 1432h97l-11 -101h-96zM766 838h96l-8 -99h-98zM1036 541h99l-9 -99h-100zM211 1284h98 l-8 -100h-98zM616 838h99l-10 -99h-97zM1022 393h100l-10 -100h-100zM199 1135h96l-6 -99h-99zM467 838h100l-8 -99h-100zM1008 246h100l-10 -101h-99zM184 987h101l-13 -100h-96zM319 838h99l-6 -99h-103zM848 96h98l-10 -98h-96zM700 96h97l-9 -98h-96zM553 96h96l-6 -98 h-100zM401 96h101l-6 -98h-103zM254 96h100l-8 -98h-98zM592 2023h98l-8 -100h-98zM891 2023h98l-8 -100h-96z" />
<glyph unicode="&#x152;" d="M629 1581h96l-6 -98h-98zM764 1432h100l-8 -99h-100zM752 1284h98l-6 -98h-103zM739 1135h101l-11 -99h-98zM479 1581h99l-7 -98h-100zM725 987h100l-10 -100h-98zM330 1581h102l-8 -98h-100zM698 692h103l-10 -98h-99zM172 1432h96l-6 -99h-100zM686 543h100l-8 -99 h-100zM160 1284h96l-8 -98h-98zM676 395h98l-10 -100h-100zM145 1135h101l-10 -99h-97zM659 246h101l-8 -99h-101zM133 987h98l-10 -100h-98zM500 96h96l-6 -96h-101zM106 692h97l-6 -98h-97zM94 543h99l-11 -99h-96zM82 395h98l-12 -100h-96zM348 96h103l-9 -96h-100z M68 246h96l-6 -99h-101zM203 96h100l-10 -96h-98zM1233 1581h96l-8 -98h-98zM1081 1581h101l-8 -98h-101zM934 1581h100l-8 -98h-100zM1167 840h99l-9 -101h-98zM1018 840h98l-6 -101h-102zM868 840h101l-6 -101h-101zM1102 96h98l-6 -96h-100zM952 96h101l-9 -96h-98z M805 96h98l-6 -96h-100z" />
<glyph unicode="&#x153;" d="M629 1581h96l-6 -98h-98zM764 1432h100l-8 -99h-100zM752 1284h98l-6 -98h-103zM739 1135h101l-11 -99h-98zM479 1581h99l-7 -98h-100zM725 987h100l-10 -100h-98zM330 1581h102l-8 -98h-100zM698 692h103l-10 -98h-99zM172 1432h96l-6 -99h-100zM686 543h100l-8 -99 h-100zM160 1284h96l-8 -98h-98zM676 395h98l-10 -100h-100zM145 1135h101l-10 -99h-97zM659 246h101l-8 -99h-101zM133 987h98l-10 -100h-98zM500 96h96l-6 -96h-101zM106 692h97l-6 -98h-97zM94 543h99l-11 -99h-96zM82 395h98l-12 -100h-96zM348 96h103l-9 -96h-100z M68 246h96l-6 -99h-101zM203 96h100l-10 -96h-98zM1233 1581h96l-8 -98h-98zM1081 1581h101l-8 -98h-101zM934 1581h100l-8 -98h-100zM1167 840h99l-9 -101h-98zM1018 840h98l-6 -101h-102zM868 840h101l-6 -101h-101zM1102 96h98l-6 -96h-100zM952 96h101l-9 -96h-98z M805 96h98l-6 -96h-100z" />
<glyph unicode="&#x178;" d="M1112 1432h100l-10 -101h-100zM1098 1284h102l-10 -100h-98zM1087 1135h99l-6 -99h-103zM1075 987h99l-11 -100h-100zM911 838h99l-9 -99h-98zM1047 688h100l-6 -96h-103zM225 1432h97l-11 -101h-96zM766 838h96l-8 -99h-98zM1036 541h99l-9 -99h-100zM211 1284h98 l-8 -100h-98zM616 838h99l-10 -99h-97zM1022 393h100l-10 -100h-100zM199 1135h96l-6 -99h-99zM467 838h100l-8 -99h-100zM1008 246h100l-10 -101h-99zM184 987h101l-13 -100h-96zM319 838h99l-6 -99h-103zM848 96h98l-10 -98h-96zM700 96h97l-9 -98h-96zM553 96h96l-6 -98 h-100zM401 96h101l-6 -98h-103zM254 96h100l-8 -98h-98zM592 2023h98l-8 -100h-98zM891 2023h98l-8 -100h-96z" />
<glyph unicode="&#x2c6;" d="M664 2013h100l-10 -98h-97zM774 1866h98l-8 -101h-100zM520 1866h96l-6 -101h-96z" />
<glyph unicode="&#x2dc;" d="M592 2013h100l-10 -98h-96zM702 1866h99l-8 -101h-101zM449 1866h96l-6 -101h-97zM846 2013h100l-10 -98h-96z" />
<glyph unicode="&#x2000;" horiz-adv-x="1079" />
<glyph unicode="&#x2001;" horiz-adv-x="2159" />
<glyph unicode="&#x2002;" horiz-adv-x="1079" />
<glyph unicode="&#x2003;" horiz-adv-x="2159" />
<glyph unicode="&#x2004;" horiz-adv-x="719" />
<glyph unicode="&#x2005;" horiz-adv-x="539" />
<glyph unicode="&#x2006;" horiz-adv-x="359" />
<glyph unicode="&#x2007;" horiz-adv-x="359" />
<glyph unicode="&#x2008;" horiz-adv-x="269" />
<glyph unicode="&#x2009;" horiz-adv-x="431" />
<glyph unicode="&#x200a;" horiz-adv-x="119" />
<glyph unicode="&#x2010;" d="M946 840h96l-6 -101h-100zM797 840h98l-8 -101h-99zM649 840h99l-9 -101h-96zM500 840h102l-10 -101h-100zM352 840h101l-9 -101h-100z" />
<glyph unicode="&#x2011;" d="M946 840h96l-6 -101h-100zM797 840h98l-8 -101h-99zM649 840h99l-9 -101h-96zM500 840h102l-10 -101h-100zM352 840h101l-9 -101h-100z" />
<glyph unicode="&#x2012;" d="M946 840h96l-6 -101h-100zM797 840h98l-8 -101h-99zM649 840h99l-9 -101h-96zM500 840h102l-10 -101h-100zM352 840h101l-9 -101h-100z" />
<glyph unicode="&#x2013;" d="M946 840h96l-6 -101h-100zM797 840h98l-8 -101h-99zM649 840h99l-9 -101h-96zM500 840h102l-10 -101h-100zM352 840h101l-9 -101h-100z" />
<glyph unicode="&#x2014;" d="M946 840h96l-6 -101h-100zM797 840h98l-8 -101h-99zM649 840h99l-9 -101h-96zM500 840h102l-10 -101h-100zM352 840h101l-9 -101h-100z" />
<glyph unicode="&#x2018;" d="M524 1421h99l-9 -96h-96zM514 1274h96l-8 -96h-98zM643 1126h98l-8 -100h-98zM631 979h98l-10 -100h-96z" />
<glyph unicode="&#x2019;" d="M821 1421h97l-7 -96h-98zM809 1274h98l-10 -96h-96zM643 1126h98l-8 -100h-98zM631 979h98l-10 -100h-96z" />
<glyph unicode="&#x201a;" d="M664 328h96l-6 -97h-97zM651 180h99l-11 -96h-96zM485 33h101l-11 -101h-96zM473 -115h98l-10 -100h-96z" />
<glyph unicode="&#x201c;" d="M299 1421h96l-6 -96h-100zM287 1274h96l-8 -96h-99zM412 1126h98l-8 -100h-96zM399 979h99l-11 -100h-98zM950 1421h97l-7 -96h-100zM938 1274h98l-10 -96h-96zM1069 1126h98l-8 -100h-98zM1057 979h96l-8 -100h-101z" />
<glyph unicode="&#x201d;" d="M442 1421h97l-7 -96h-100zM430 1274h96l-8 -96h-98zM272 1126h101l-11 -100h-96zM262 979h96l-10 -100h-98zM1094 1421h96l-6 -96h-101zM1081 1274h99l-11 -96h-96zM926 1126h98l-8 -100h-98zM913 979h97l-9 -100h-100z" />
<glyph unicode="&#x201e;" d="M352 328h97l-7 -97h-100zM340 180h96l-8 -96h-98zM182 33h101l-11 -101h-96zM172 -115h96l-10 -100h-98zM1004 328h96l-6 -97h-101zM991 180h99l-11 -96h-96zM836 33h98l-8 -101h-99zM823 -115h97l-9 -100h-100z" />
<glyph unicode="&#x2026;" horiz-adv-x="1347" d="M166 16h98l-8 -100h-96zM629 16h96l-6 -100h-96zM1092 16h96l-6 -100h-99z" />
<glyph unicode="&#x202f;" horiz-adv-x="431" />
<glyph unicode="&#x2039;" d="M754 1432h96l-6 -99h-99zM692 1284h99l-7 -98h-102zM629 1135h100l-8 -99h-100zM569 987h97l-9 -100h-100zM541 692h100l-10 -100h-96zM578 543h100l-10 -99h-99zM614 395h101l-13 -100h-98zM649 246h99l-9 -99h-98z" />
<glyph unicode="&#x203a;" d="M643 1432h102l-10 -99h-100zM682 1284h96l-8 -98h-96zM719 1135h96l-8 -99h-96zM754 987h100l-10 -100h-99zM725 692h102l-8 -100h-100zM666 543h100l-10 -99h-97zM604 395h98l-10 -100h-98zM539 246h102l-10 -99h-99z" />
<glyph unicode="&#x205f;" horiz-adv-x="539" />
<glyph unicode="&#x20ac;" d="M1077 1581h97l-9 -98h-96zM930 1581h96l-8 -98h-98zM782 1581h97l-11 -98h-96zM631 1581h100l-8 -98h-100zM483 1581h99l-7 -98h-102zM324 1432h96l-8 -99h-97zM309 1284h101l-11 -98h-96zM287 987h96l-10 -100h-99zM948 96h96l-8 -96h-98zM258 692h98l-8 -98h-98z M801 96h96l-6 -96h-100zM246 543h98l-8 -99h-98zM651 96h99l-9 -96h-98zM233 395h97l-8 -100h-97zM502 96h100l-8 -96h-98zM219 246h98l-10 -99h-96zM354 96h99l-7 -96h-100zM741 1133h101l-11 -97h-96zM594 1133h100l-10 -97h-96zM449 1133h96l-8 -97h-99zM299 1133h98 l-8 -97h-100zM150 1133h100l-10 -97h-99zM532 391h97l-8 -98h-99zM383 391h98l-10 -98h-96zM86 391h98l-6 -98h-102z" />
<glyph unicode="&#x2122;" horiz-adv-x="1984" d="M678 1581h96l-6 -102h-100zM530 1581h97l-6 -102h-101zM381 1581h98l-8 -102h-96zM231 1581h103l-10 -102h-99zM371 1432h96l-8 -101h-99zM84 1581h100l-8 -102h-100zM356 1284h99l-9 -98h-98zM344 1135h98l-8 -99h-98zM334 987h96l-12 -100h-96zM1776 1432h102l-10 -99 h-99zM1628 1432h98l-8 -99h-98zM1763 1284h101l-9 -98h-100zM1753 1135h98l-8 -99h-100zM1565 1284h102l-10 -98h-98zM1739 987h98l-8 -100h-100zM1503 1135h101l-9 -99h-100zM1036 1432h99l-7 -99h-102zM1442 987h100l-12 -100h-96zM1073 1284h96l-6 -98h-98zM887 1432h98 l-6 -99h-100zM1110 1135h98l-8 -99h-98zM877 1284h96l-8 -98h-99zM1147 987h98l-10 -100h-100zM862 1135h101l-11 -99h-96zM850 987h98l-10 -100h-98z" />
<glyph unicode="&#x25fc;" horiz-adv-x="1433" d="M0 1434h1434v-1434h-1434v1434z" />
</font>
</defs>
</svg>
